<svg width="561" height="355" viewBox="0 0 561 355" fill="none" xmlns="http://www.w3.org/2000/svg">
<g opacity="0.1">
<g clip-path="url(#clip0_7032_82946)">
<g clip-path="url(#clip1_7032_82946)">
<path d="M675.278 -0.129883H-114.849V2.38832H675.278V-0.129883Z" fill="#221B2D"/>
<path d="M675.278 2.38867H-114.849V5.23161H675.278V2.38867Z" fill="#F1BF20"/>
<path d="M675.278 5.23145H-114.849V7.74964H675.278V5.23145Z" fill="#221B2D"/>
<path d="M675.278 10.5928H-114.849V13.111H675.278V10.5928Z" fill="#221B2D"/>
<path d="M675.278 7.74609H-114.849V10.589H675.278V7.74609Z" fill="#F1BF20"/>
<path d="M69.609 50.6773L54.1426 40.637L69.609 30.5938L85.0724 40.637L69.609 50.6773Z" fill="#E66A06"/>
<path d="M69.6087 24.9463L45.4541 40.6371L69.6205 56.3278L93.787 40.6371L69.6087 24.9463ZM52.3563 40.6371L69.6087 29.4365L86.8582 40.6371L69.6087 51.8287L52.3563 40.6371Z" fill="#303316"/>
<path d="M68.0765 24.7803H61.1625L36.7451 40.6364L61.0237 56.4009H67.9407L43.6591 40.6364L68.0765 24.7803ZM78.0548 24.7803H71.1379L95.5523 40.6364L71.2737 56.4009H78.1876L102.469 40.6364L78.0548 24.7803Z" fill="#F1BF20"/>
<path d="M59.3793 24.7803H52.4653L28.0361 40.6364L52.3177 56.4009H59.2376L34.9531 40.6364L59.3793 24.7803ZM86.7518 24.7803H79.8378L104.258 40.6364L79.9736 56.4009H86.8905L111.172 40.6364L86.7518 24.7803Z" fill="#82554F"/>
<path d="M129.712 26.7169V24.8334H95.5347L95.4521 24.7803H88.5381L112.955 40.6364L88.6739 56.4009H129.712V54.5558H121.658V52.7757H120.507V52.6723H121.658V52.7757H129.712V50.8951H121.658V49.1179H129.712V47.2345H117.894V52.6723H101.339L119.872 40.6364L101.333 28.5974H117.894V34.0353H129.712V32.1548H121.658V30.3776H129.712V28.4941H121.658V26.7169H129.712Z" fill="#9E1117"/>
<path d="M14.4242 44.0371L9.50293 40.6362L14.4242 37.2354L19.3455 40.6362L14.4242 44.0371Z" fill="#82554F"/>
<path d="M50.6768 24.7803H43.7658L43.6831 24.8334H9.50293V26.7169H17.5564V28.4941H9.50293V30.3776H17.5564V32.1548H9.50293V34.0353H21.3234V28.5974H37.8851L19.3455 40.6364L37.8792 52.6723H21.3234V47.2345H9.50293V49.1179H17.5564V50.8951H9.50293V52.7757H17.5564V54.5558H9.50293V56.4009H50.541L26.2594 40.6364L50.6768 24.7803Z" fill="#9E1117"/>
<path d="M124.79 44.0371L129.712 40.6362L124.79 37.2354L119.872 40.6362L124.79 44.0371Z" fill="#82554F"/>
<path d="M121.658 52.6729H120.507V52.7791H121.658V52.6729Z" fill="#9E1117"/>
<path d="M121.658 52.6729H120.507V52.7791H121.658V52.6729Z" fill="#9E1117"/>
<path d="M121.658 52.6729H120.507V52.7791H121.658V52.6729Z" fill="#9E1117"/>
<path d="M6.73897 41.3451V39.8395H0.28553L-1.12856 39.1162V37.2357H-7.3901L-8.63887 36.595V34.7293H-15.1986L-16.5211 34.0532V32.2199H-22.9008L-24.0344 31.6295V29.7017H-30.5558L-31.8931 29.0109V27.1924H-38.6831V28.9903L-40.0735 29.7047H-46.5949V31.6324L-47.7285 32.2229H-54.1111V34.0562L-55.4307 34.7322H-61.9816V36.598L-63.2333 37.2386H-69.4978V39.1191L-70.9089 39.8424H-77.3564V41.348H-70.9266L-69.486 42.0861V43.9518H-63.2599L-61.9698 44.6131V46.4612H-55.4189L-54.0993 47.1402V48.9705H-47.8643L-46.5801 49.6289V51.474H-40.0558L-38.6713 52.1825V53.9833H-31.8813V52.1648L-30.5321 51.474H-24.0078V49.6289L-22.7237 48.9705H-16.4916V47.1402L-15.1691 46.4612H-8.6182V44.6131L-7.32811 43.9518H-1.10493V42.0861L0.338669 41.348L6.73897 41.3451ZM-7.91263 41.6875V43.6684L-8.94884 44.1998H-15.4259V46.0124L-16.7898 46.7092H-23.2993V48.693L-24.3296 49.2185H-30.8244V51.0459L-32.1617 51.7308H-38.4794L-39.8167 51.0459V49.2185H-46.3115L-47.3418 48.693V46.7092H-53.8365L-55.2152 46.0124V44.1998H-61.6834L-62.7196 43.6684V41.6875H-69.1671L-70.5901 40.9583V40.238L-69.1376 39.4941H-62.7196V37.5309L-61.6539 36.9847H-55.2152V35.1721L-53.8542 34.4724H-47.3595V32.5742L-46.1786 31.9631H-39.8551V30.1357L-38.5236 29.4537H-32.1824L-30.851 30.1357V31.9631H-24.5304L-23.3495 32.5742V34.4724H-16.84L-15.4761 35.1721V36.9847H-9.02855L-7.96282 37.5309V39.4941H-1.48576L-0.0303497 40.238V40.9583L-1.4533 41.6875H-7.91263Z" fill="#82554F"/>
<path d="M675.278 136.277H-114.849V138.796H675.278V136.277Z" fill="#221B2D"/>
<path d="M675.278 138.797H-114.849V141.64H675.278V138.797Z" fill="#F1BF20"/>
<path d="M675.278 141.639H-114.849V144.157H675.278V141.639Z" fill="#221B2D"/>
<path d="M675.278 147H-114.849V149.518H675.278V147Z" fill="#221B2D"/>
<path d="M675.278 144.158H-114.849V147.001H675.278V144.158Z" fill="#F1BF20"/>
<path d="M69.609 187.086L54.1426 177.045L69.609 167.002L85.0724 177.045L69.609 187.086Z" fill="#303316"/>
<path d="M69.6087 161.354L45.4541 177.044L69.6205 192.735L93.787 177.044L69.6087 161.354ZM52.3563 177.041L69.6087 165.841L86.8582 177.041L69.6087 188.242L52.3563 177.041Z" fill="#9E1117"/>
<path d="M68.0765 161.188H61.1625L36.7451 177.044L61.0237 192.811H67.9407L43.6591 177.044L68.0765 161.188ZM78.0548 161.188H71.1379L95.5523 177.044L71.2737 192.811H78.1876L102.469 177.044L78.0548 161.188Z" fill="#303316"/>
<path d="M59.3793 161.188H52.4653L28.0361 177.044L52.3177 192.811H59.2376L34.9531 177.044L59.3793 161.188ZM86.7518 161.188H79.8378L104.258 177.044L79.9736 192.811H86.8905L111.172 177.044L86.7518 161.188Z" fill="#E66A06"/>
<path d="M129.712 163.124V161.241H95.5347L95.4521 161.188H88.5381L112.955 177.044L88.6739 192.811H129.712V190.963H121.658V189.186H120.507V189.08H121.658V189.186H129.712V187.302H121.658V185.525H129.712V183.642H117.894V189.08H101.339L119.872 177.044L101.333 165.008H117.894V170.445H129.712V168.562H121.658V166.785H129.712V164.901H121.658V163.124H129.712Z" fill="#82554F"/>
<path d="M14.4242 180.444L9.50293 177.043L14.4242 173.643L19.3455 177.043L14.4242 180.444Z" fill="#E66A06"/>
<path d="M50.6768 161.188H43.7658L43.6831 161.241H9.50293V163.124H17.5564V164.901H9.50293V166.785H17.5564V168.562H9.50293V170.445H21.3234V165.008H37.8851L19.3455 177.044L37.8792 189.08H21.3234V183.642H9.50293V185.525H17.5564V187.302H9.50293V189.186H17.5564V190.963H9.50293V192.811H50.541L26.2594 177.044L50.6768 161.188Z" fill="#82554F"/>
<path d="M124.79 180.444L129.712 177.043L124.79 173.643L119.872 177.043L124.79 180.444Z" fill="#E66A06"/>
<path d="M121.658 189.08H120.507V189.186H121.658V189.08Z" fill="#9E1117"/>
<path d="M121.658 189.08H120.507V189.186H121.658V189.08Z" fill="#9E1117"/>
<path d="M121.658 189.08H120.507V189.186H121.658V189.08Z" fill="#9E1117"/>
<path d="M6.73911 176.248H-0.0390625V177.754H6.73911V176.248Z" fill="#82554F"/>
<path d="M0.234053 177.23L-1.5918 178.166L-1.36286 178.613L0.46299 177.677L0.234053 177.23Z" fill="#82554F"/>
<path d="M-1.36294 175.395L-1.5918 175.842L0.234216 176.777L0.463075 176.331L-1.36294 175.395Z" fill="#82554F"/>
<path d="M675.278 272.689H-114.849V275.208H675.278V272.689Z" fill="#221B2D"/>
<path d="M675.278 275.203H-114.849V278.046H675.278V275.203Z" fill="#F1BF20"/>
<path d="M675.278 278.047H-114.849V280.565H675.278V278.047Z" fill="#221B2D"/>
<path d="M675.278 283.408H-114.849V285.926H675.278V283.408Z" fill="#221B2D"/>
<path d="M675.278 280.564H-114.849V283.407H675.278V280.564Z" fill="#F1BF20"/>
<path d="M69.609 323.496L54.1426 313.452L69.609 303.412L85.0724 313.452L69.609 323.496Z" fill="#F1BF20"/>
<path d="M69.6087 297.764L45.4541 313.454L69.6205 329.142L93.787 313.454L69.6087 297.764ZM52.3563 313.454L69.6087 302.236L86.8582 313.454L69.6087 324.652L52.3563 313.454Z" fill="#E66A06"/>
<path d="M68.0765 297.6H61.1625L36.7451 313.456L61.0237 329.22H67.9407L43.6591 313.456L68.0765 297.6ZM78.0548 297.6H71.1379L95.5523 313.456L71.2737 329.22H78.1876L102.469 313.456L78.0548 297.6Z" fill="#303316"/>
<path d="M59.3793 297.6H52.4653L28.0361 313.456L52.3177 329.22H59.2376L34.9531 313.456L59.3793 297.6ZM86.7518 297.6H79.8378L104.258 313.456L79.9736 329.22H86.8905L111.172 313.456L86.7518 297.6Z" fill="#F1BF20"/>
<path d="M129.712 299.533V297.65H95.5347L95.4521 297.6H88.5381L112.955 313.456L88.6739 329.22H129.712V327.372H121.658V325.595H120.507V325.489H121.658V325.595H129.712V323.712H121.658V321.934H129.712V320.051H117.894V325.489H101.339L119.872 313.456L101.333 301.417H117.894V306.855H129.712V304.971H121.658V303.194H129.712V301.31H121.658V299.533H129.712Z" fill="#303316"/>
<path d="M14.4242 316.853L9.50293 313.452L14.4242 310.051L19.3455 313.452L14.4242 316.853Z" fill="#F1BF20"/>
<path d="M50.6768 297.6H43.7658L43.6831 297.65H9.50293V299.533H17.5564V301.31H9.50293V303.194H17.5564V304.971H9.50293V306.855H21.3234V301.417H37.8851L19.3455 313.456L37.8792 325.489H21.3234V320.051H9.50293V321.934H17.5564V323.712H9.50293V325.595H17.5564V327.372H9.50293V329.22H50.541L26.2594 313.456L50.6768 297.6Z" fill="#303316"/>
<path d="M124.79 316.853L129.712 313.452L124.79 310.051L119.872 313.452L124.79 316.853Z" fill="#F1BF20"/>
<path d="M121.658 325.488H120.507V325.595H121.658V325.488Z" fill="#9E1117"/>
<path d="M121.658 325.488H120.507V325.595H121.658V325.488Z" fill="#9E1117"/>
<path d="M121.658 325.488H120.507V325.595H121.658V325.488Z" fill="#9E1117"/>
<path d="M6.73911 312.654H-0.0390625V314.16H6.73911V312.654Z" fill="#E66A06"/>
<path d="M0.233076 313.64L-1.59277 314.576L-1.36383 315.023L0.462021 314.087L0.233076 313.64Z" fill="#E66A06"/>
<path d="M-1.35903 311.799L-1.58789 312.246L0.238106 313.182L0.466965 312.735L-1.35903 311.799Z" fill="#E66A06"/>
<path d="M675.278 68.0742H-114.849V70.5924H675.278V68.0742Z" fill="#221B2D"/>
<path d="M675.278 70.5918H-114.849V73.4347H675.278V70.5918Z" fill="#E66A06"/>
<path d="M675.278 73.4355H-114.849V75.9537H675.278V73.4355Z" fill="#221B2D"/>
<path d="M675.278 78.7959H-114.849V81.3141H675.278V78.7959Z" fill="#221B2D"/>
<path d="M675.278 75.9531H-114.849V78.7961H675.278V75.9531Z" fill="#E66A06"/>
<path d="M-45.4195 92.9844H-52.3335L-76.7656 108.84L-52.487 124.605H-45.5671L-69.8517 108.84L-45.4195 92.9844ZM-18.047 92.9844H-24.961L-0.540672 108.84L-24.8252 124.605H-17.9083L6.3733 108.84L-18.047 92.9844Z" fill="#F1BF20"/>
<path d="M16.8594 120.877H15.708V120.983H16.8594V120.877Z" fill="#9E1117"/>
<path d="M24.9131 94.921V93.0375H-9.26411L-9.34677 92.9873H-16.2607L8.15663 108.843L-16.122 124.608H24.9131V122.757H16.8626V120.983H24.9131V119.099H16.8626V117.322H24.9131V115.439H13.0986V120.876H-3.46015L15.0736 108.843L-3.46605 96.8045H13.0986V102.239H24.9131V100.359H16.8626V98.5817H24.9131V96.6952H16.8626V94.921H24.9131Z" fill="#303316"/>
<path d="M30.4098 108.462H24.3667L19.9916 105.439L15.0732 108.84L19.9916 112.241L24.3667 109.215H30.4098V108.462Z" fill="#F1BF20"/>
<path d="M44.2201 104.77H35.8301L29.8726 108.796H29.8047L29.8372 108.82L29.8047 108.841H29.8726L35.8301 112.867H44.2201L38.2272 108.82L44.2201 104.77Z" fill="#303316"/>
<path d="M69.6083 94.5752L66.1543 97.1643H73.0594L69.6083 94.5752Z" fill="#E66A06"/>
<path d="M69.6083 120.472L66.1543 123.064H73.0594L69.6083 120.472Z" fill="#E66A06"/>
<path d="M73.0595 97.165L69.6084 99.7541H76.5135L73.0595 97.165Z" fill="#E66A06"/>
<path d="M76.5136 99.7539L73.0596 102.343H79.9676L76.5136 99.7539Z" fill="#E66A06"/>
<path d="M79.9677 102.343L76.5137 104.935H83.4188L79.9677 102.343Z" fill="#E66A06"/>
<path d="M73.0595 102.343L69.6084 104.935H76.5135L73.0595 102.343Z" fill="#E66A06"/>
<path d="M66.1542 102.343L62.7002 104.935H69.6083L66.1542 102.343Z" fill="#E66A06"/>
<path d="M59.247 102.343L55.7959 104.935H62.701L59.247 102.343Z" fill="#E66A06"/>
<path d="M79.9677 112.702L76.5137 115.294H83.4188L79.9677 112.702Z" fill="#E66A06"/>
<path d="M73.0595 112.702L69.6084 115.294H76.5135L73.0595 112.702Z" fill="#E66A06"/>
<path d="M66.1542 112.702L62.7002 115.294H69.6083L66.1542 112.702Z" fill="#E66A06"/>
<path d="M59.247 112.702L55.7959 115.294H62.701L59.247 112.702Z" fill="#E66A06"/>
<path d="M83.4189 104.935L79.9678 107.524H86.8729L83.4189 104.935Z" fill="#E66A06"/>
<path d="M76.5136 104.935L73.0596 107.524H79.9676L76.5136 104.935Z" fill="#E66A06"/>
<path d="M69.6083 104.935L66.1543 107.524H73.0594L69.6083 104.935Z" fill="#E66A06"/>
<path d="M62.7001 104.935L59.2461 107.524H66.1542L62.7001 104.935Z" fill="#E66A06"/>
<path d="M55.7958 104.935L52.3418 107.524H59.2469L55.7958 104.935Z" fill="#E66A06"/>
<path d="M83.4189 110.113L79.9678 112.702H86.8729L83.4189 110.113Z" fill="#E66A06"/>
<path d="M76.5136 110.113L73.0596 112.702H79.9676L76.5136 110.113Z" fill="#E66A06"/>
<path d="M69.6083 110.113L66.1543 112.702H73.0594L69.6083 110.113Z" fill="#E66A06"/>
<path d="M62.7001 110.113L59.2461 112.702H66.1542L62.7001 110.113Z" fill="#E66A06"/>
<path d="M55.7958 110.113L52.3418 112.702H59.2469L55.7958 110.113Z" fill="#E66A06"/>
<path d="M86.873 107.523L83.4189 110.112H90.327L86.873 107.523Z" fill="#E66A06"/>
<path d="M79.9677 107.523L76.5137 110.112H83.4188L79.9677 107.523Z" fill="#E66A06"/>
<path d="M73.0595 107.523L69.6084 110.112H76.5135L73.0595 107.523Z" fill="#E66A06"/>
<path d="M66.1542 107.523L62.7002 110.112H69.6083L66.1542 107.523Z" fill="#E66A06"/>
<path d="M59.247 107.523L55.7959 110.112H62.701L59.247 107.523Z" fill="#E66A06"/>
<path d="M52.3417 107.523L48.8877 110.112H55.7958L52.3417 107.523Z" fill="#E66A06"/>
<path d="M69.6083 99.7539L66.1543 102.343H73.0594L69.6083 99.7539Z" fill="#E66A06"/>
<path d="M62.7001 99.7539L59.2461 102.343H66.1542L62.7001 99.7539Z" fill="#E66A06"/>
<path d="M76.5136 115.294L73.0596 117.883H79.9676L76.5136 115.294Z" fill="#E66A06"/>
<path d="M69.6083 115.294L66.1543 117.883H73.0594L69.6083 115.294Z" fill="#E66A06"/>
<path d="M62.7001 115.294L59.2461 117.883H66.1542L62.7001 115.294Z" fill="#E66A06"/>
<path d="M66.1542 97.165L62.7002 99.7541H69.6083L66.1542 97.165Z" fill="#E66A06"/>
<path d="M73.0595 117.883L69.6084 120.472H76.5135L73.0595 117.883Z" fill="#E66A06"/>
<path d="M66.1542 117.883L62.7002 120.472H69.6083L66.1542 117.883Z" fill="#E66A06"/>
<path d="M675.278 204.482H-114.849V207.001H675.278V204.482Z" fill="#221B2D"/>
<path d="M675.278 207H-114.849V209.843H675.278V207Z" fill="#E66A06"/>
<path d="M675.278 209.844H-114.849V212.362H675.278V209.844Z" fill="#221B2D"/>
<path d="M675.278 215.203H-114.849V217.721H675.278V215.203Z" fill="#221B2D"/>
<path d="M675.278 212.361H-114.849V215.204H675.278V212.361Z" fill="#E66A06"/>
<path d="M675.278 340.893H-114.849V343.411H675.278V340.893Z" fill="#221B2D"/>
<path d="M675.278 343.408H-114.849V346.251H675.278V343.408Z" fill="#E66A06"/>
<path d="M675.278 346.254H-114.849V348.772H675.278V346.254Z" fill="#221B2D"/>
<path d="M675.278 351.611H-114.849V354.13H675.278V351.611Z" fill="#221B2D"/>
<path d="M675.278 348.77H-114.849V351.612H675.278V348.77Z" fill="#E66A06"/>
<path d="M-45.4195 229.395H-52.3335L-76.7656 245.248L-52.487 261.015H-45.5671L-69.8517 245.248L-45.4195 229.395ZM-18.047 229.395H-24.961L-0.540672 245.248L-24.8252 261.015H-17.9083L6.3733 245.248L-18.047 229.395Z" fill="#303316"/>
<path d="M24.9131 231.328V229.445H-9.26411L-9.34677 229.395H-16.2607L8.15958 245.248L-16.122 261.015H24.9131V259.167H16.8626V257.39H24.9131V255.506H16.8626V253.729H24.9131V251.846H13.0956V257.284H-3.46015L15.0736 245.248L-3.46605 233.212H13.0956V238.65H24.9131V236.766H16.8626V234.989H24.9131V233.105H16.8626V231.328H24.9131Z" fill="#9E1117"/>
<path d="M30.41 244.873H23.6318V245.626H30.41V244.873Z" fill="#303316"/>
<path d="M38.1947 245.248H29.8047L35.8301 241.18H44.2201L38.1947 245.248Z" fill="#E66A06"/>
<path d="M35.8301 249.274H44.2201L38.1947 245.203H29.8047L35.8301 249.274Z" fill="#E66A06"/>
<path d="M19.9916 248.649L24.9128 245.249L19.9916 241.848L15.0732 245.249L19.9916 248.649Z" fill="#303316"/>
<path d="M69.6083 230.984L66.1543 233.573H73.0594L69.6083 230.984Z" fill="#82554F"/>
<path d="M69.6083 256.883L66.1543 259.472H73.0594L69.6083 256.883Z" fill="#82554F"/>
<path d="M73.0595 233.572L69.6084 236.161H76.5135L73.0595 233.572Z" fill="#82554F"/>
<path d="M76.5136 236.162L73.0596 238.754H79.9676L76.5136 236.162Z" fill="#82554F"/>
<path d="M79.9677 238.754L76.5137 241.343H83.4188L79.9677 238.754Z" fill="#82554F"/>
<path d="M73.0595 238.754L69.6084 241.343H76.5135L73.0595 238.754Z" fill="#82554F"/>
<path d="M66.1542 238.754L62.7002 241.343H69.6083L66.1542 238.754Z" fill="#82554F"/>
<path d="M59.247 238.754L55.7959 241.343H62.701L59.247 238.754Z" fill="#82554F"/>
<path d="M79.9677 249.113L76.5137 251.702H83.4188L79.9677 249.113Z" fill="#82554F"/>
<path d="M73.0595 249.113L69.6084 251.702H76.5135L73.0595 249.113Z" fill="#82554F"/>
<path d="M66.1542 249.113L62.7002 251.702H69.6083L66.1542 249.113Z" fill="#82554F"/>
<path d="M59.247 249.113L55.7959 251.702H62.701L59.247 249.113Z" fill="#82554F"/>
<path d="M83.4189 241.342L79.9678 243.931H86.8729L83.4189 241.342Z" fill="#82554F"/>
<path d="M76.5136 241.342L73.0596 243.931H79.9676L76.5136 241.342Z" fill="#82554F"/>
<path d="M69.6083 241.342L66.1543 243.931H73.0594L69.6083 241.342Z" fill="#82554F"/>
<path d="M62.7001 241.342L59.2461 243.931H66.1542L62.7001 241.342Z" fill="#82554F"/>
<path d="M55.7958 241.342L52.3418 243.931H59.2469L55.7958 241.342Z" fill="#82554F"/>
<path d="M83.4189 246.521L79.9678 249.113H86.8729L83.4189 246.521Z" fill="#82554F"/>
<path d="M76.5136 246.521L73.0596 249.113H79.9676L76.5136 246.521Z" fill="#82554F"/>
<path d="M69.6083 246.521L66.1543 249.113H73.0594L69.6083 246.521Z" fill="#82554F"/>
<path d="M62.7001 246.521L59.2461 249.113H66.1542L62.7001 246.521Z" fill="#82554F"/>
<path d="M55.7958 246.521L52.3418 249.113H59.2469L55.7958 246.521Z" fill="#82554F"/>
<path d="M86.873 243.932L83.4189 246.521H90.327L86.873 243.932Z" fill="#82554F"/>
<path d="M79.9677 243.932L76.5137 246.521H83.4188L79.9677 243.932Z" fill="#82554F"/>
<path d="M73.0595 243.932L69.6084 246.521H76.5135L73.0595 243.932Z" fill="#82554F"/>
<path d="M66.1542 243.932L62.7002 246.521H69.6083L66.1542 243.932Z" fill="#82554F"/>
<path d="M59.247 243.932L55.7959 246.521H62.701L59.247 243.932Z" fill="#82554F"/>
<path d="M52.3417 243.932L48.8877 246.521H55.7958L52.3417 243.932Z" fill="#82554F"/>
<path d="M69.6083 236.162L66.1543 238.754H73.0594L69.6083 236.162Z" fill="#82554F"/>
<path d="M62.7001 236.162L59.2461 238.754H66.1542L62.7001 236.162Z" fill="#82554F"/>
<path d="M76.5136 251.701L73.0596 254.29H79.9676L76.5136 251.701Z" fill="#82554F"/>
<path d="M69.6083 251.701L66.1543 254.29H73.0594L69.6083 251.701Z" fill="#82554F"/>
<path d="M62.7001 251.701L59.2461 254.29H66.1542L62.7001 251.701Z" fill="#82554F"/>
<path d="M66.1542 233.572L62.7002 236.161H69.6083L66.1542 233.572Z" fill="#82554F"/>
<path d="M73.0595 254.291L69.6084 256.883H76.5135L73.0595 254.291Z" fill="#82554F"/>
<path d="M66.1542 254.291L62.7002 256.883H69.6083L66.1542 254.291Z" fill="#82554F"/>
<path d="M279.962 50.6773L264.496 40.637L279.962 30.5938L295.426 40.637L279.962 50.6773Z" fill="#E66A06"/>
<path d="M279.962 24.9463L255.796 40.6371L279.962 56.3278L304.126 40.6371L279.962 24.9463ZM262.71 40.6371L279.962 29.4365L297.212 40.6371L279.962 51.8287L262.71 40.6371Z" fill="#303316"/>
<path d="M278.43 24.7803H271.516L247.087 40.6364L271.366 56.4009H278.282L253.998 40.6364L278.43 24.7803ZM288.405 24.7803H281.491L305.909 40.6364L281.627 56.4009H288.544L312.826 40.6364L288.405 24.7803Z" fill="#F1BF20"/>
<path d="M269.73 24.7803H262.819L238.396 40.6364L262.677 56.4009H269.597L245.315 40.6364L269.73 24.7803ZM297.105 24.7803H290.188L314.609 40.6364L290.324 56.4009H297.241L321.52 40.6364L297.105 24.7803Z" fill="#82554F"/>
<path d="M340.063 26.7169V24.8334H305.885L305.803 24.7803H298.889L323.309 40.6364L299.027 56.4009H340.063V54.5558H332.012V52.7757H330.861V52.6723H332.012V52.7757H340.063V50.8951H332.012V49.1179H340.063V47.2345H328.248V52.6723H311.692L330.226 40.6364L311.686 28.5974H328.248V34.0353H340.063V32.1548H332.012V30.3776H340.063V28.4941H332.012V26.7169H340.063Z" fill="#9E1117"/>
<path d="M224.778 44.0371L219.856 40.6362L224.778 37.2354L229.699 40.6362L224.778 44.0371Z" fill="#82554F"/>
<path d="M261.03 24.7803H254.119L254.037 24.8334H219.856V26.7169H227.91V28.4941H219.856V30.3776H227.91V32.1548H219.856V34.0353H231.677V28.5974H248.239L229.699 40.6364L248.233 52.6723H231.677V47.2345H219.856V49.1179H227.91V50.8951H219.856V52.7757H227.91V54.5558H219.856V56.4009H260.895L236.613 40.6364L261.03 24.7803Z" fill="#9E1117"/>
<path d="M335.144 44.0371L340.062 40.6362L335.144 37.2354L330.223 40.6362L335.144 44.0371Z" fill="#82554F"/>
<path d="M332.012 52.6729H330.86V52.7791H332.012V52.6729Z" fill="#9E1117"/>
<path d="M332.012 52.6729H330.86V52.7791H332.012V52.6729Z" fill="#9E1117"/>
<path d="M332.012 52.6729H330.86V52.7791H332.012V52.6729Z" fill="#9E1117"/>
<path d="M201.703 41.3449V39.8393H195.208L193.818 39.1249V37.2355H187.453L186.308 36.6451V34.7203H179.848L178.446 34.0029V32.2109H171.656V33.9822L170.218 34.7173H163.759V36.6421L162.613 37.2326H156.243V39.1338L154.852 39.8482H148.357V41.3538H154.781L156.228 42.0948V43.9576H162.478L163.762 44.6159V46.461H170.233L171.671 47.1991V48.9704H178.461V47.1784L179.863 46.461H186.331V44.6159L187.618 43.9576H193.85V42.0859L195.3 41.3449H201.703ZM187.054 43.6712L186.024 44.1997H179.529V46.0507L178.248 46.709H171.812L170.528 46.0507V44.1997H164.033L163.003 43.6712V41.6874H156.567L155.15 40.9612V40.2497L156.626 39.4939H163.021V37.5898L164.202 36.9993H170.537V35.1454L171.821 34.4871H178.257L179.538 35.1454V36.9993H185.871L187.051 37.5898V39.4939H193.449L194.925 40.2497V40.9612L193.508 41.6874H187.054V43.6712Z" fill="#9E1117"/>
<path d="M217.09 41.3451V39.8395H210.63L209.219 39.1162V37.2357H202.952L201.7 36.595V34.7293H195.152L193.829 34.0532V32.2199H187.453L186.316 31.6295V29.7017H179.798L178.446 29.008V27.1924H171.656V28.9903L170.265 29.7047H163.759V31.6324L162.625 32.2229H156.243V34.0562L154.923 34.7322H148.372V36.598L147.12 37.2386H140.856V39.1191L139.445 39.8424H132.985V41.348H139.415L140.856 42.0861V43.9518H147.079L148.372 44.6131V46.4612H154.92L156.243 47.1402V48.9705H162.478L163.762 49.6289V51.474H170.286L171.671 52.1825V53.9833H178.461V52.1648L179.807 51.474H186.331V49.6289L187.618 48.9705H193.85V47.1402L195.173 46.4612H201.721V44.6131L203.014 43.9518H209.237V42.0861L210.68 41.348L217.09 41.3451ZM202.441 41.6875V43.6684L201.405 44.1998H194.91V46.0124L193.549 46.7092H187.04V48.693L186.009 49.2185H179.514V51.0459L178.18 51.7308H171.874L170.537 51.0459V49.2185H164.042L163.012 48.693V46.7092H156.517L155.156 46.0124V44.1998H148.661L147.625 43.6684V41.6875H141.186L139.764 40.9583V40.238L141.216 39.4941H147.634V37.5309L148.7 36.9847H155.15V35.1721L156.511 34.4724H163.006V32.5742L164.187 31.9631H170.537V30.1357L171.868 29.4537H178.207L179.538 30.1357V31.9631H185.862L187.042 32.5742V34.4724H193.552L194.913 35.1721V36.9847H201.363L202.429 37.5309V39.4941H208.847L210.3 40.238V40.9583L208.877 41.6875H202.441Z" fill="#82554F"/>
<path d="M178.446 39.0952V37.2354H171.656V39.0775L170.18 39.8392H163.759V41.3448H170.103L171.668 42.1448V43.9486H178.458V42.1271L179.984 41.3448H186.328V39.8392H179.895L178.446 39.0952ZM170.537 40.22L171.954 39.4938H178.121L179.538 40.22V41.0023L178.201 41.6872H171.874L170.537 41.0023V40.22Z" fill="#82554F"/>
<path d="M279.962 187.086L264.496 177.045L279.962 167.002L295.426 177.045L279.962 187.086Z" fill="#303316"/>
<path d="M279.962 161.354L255.796 177.041L279.962 192.732L304.126 177.041L279.962 161.354ZM262.71 177.041L279.962 165.841L297.212 177.041L279.962 188.242L262.71 177.041Z" fill="#9E1117"/>
<path d="M278.43 161.188H271.516L247.087 177.044L271.366 192.811H278.282L253.998 177.044L278.43 161.188ZM288.405 161.188H281.491L305.909 177.044L281.627 192.811H288.544L312.826 177.044L288.405 161.188Z" fill="#303316"/>
<path d="M269.73 161.188H262.819L238.396 177.044L262.677 192.811H269.597L245.315 177.044L269.73 161.188ZM297.105 161.188H290.188L314.609 177.044L290.324 192.811H297.241L321.52 177.044L297.105 161.188Z" fill="#E66A06"/>
<path d="M340.063 163.124V161.241H305.885L305.803 161.188H298.889L323.309 177.044L299.027 192.811H340.063V190.963H332.012V189.186H330.861V189.08H332.012V189.186H340.063V187.302H332.012V185.525H340.063V183.642H328.248V189.08H311.692L330.226 177.044L311.686 165.008H328.248V170.445H340.063V168.562H332.012V166.785H340.063V164.901H332.012V163.124H340.063Z" fill="#82554F"/>
<path d="M224.778 180.444L219.856 177.043L224.778 173.643L229.699 177.043L224.778 180.444Z" fill="#E66A06"/>
<path d="M261.03 161.188H254.119L254.037 161.241H219.856V163.124H227.91V164.901H219.856V166.785H227.91V168.562H219.856V170.445H231.677V165.008H248.239L229.699 177.044L248.233 189.08H231.677V183.642H219.856V185.525H227.91V187.302H219.856V189.186H227.91V190.963H219.856V192.811H260.895L236.613 177.044L261.03 161.188Z" fill="#82554F"/>
<path d="M335.144 180.444L340.062 177.043L335.144 173.643L330.223 177.043L335.144 180.444Z" fill="#E66A06"/>
<path d="M332.012 189.08H330.86V189.186H332.012V189.08Z" fill="#9E1117"/>
<path d="M332.012 189.08H330.86V189.186H332.012V189.08Z" fill="#9E1117"/>
<path d="M332.012 189.08H330.86V189.186H332.012V189.08Z" fill="#9E1117"/>
<path d="M201.703 176.248H194.925V177.754H201.703V176.248Z" fill="#303316"/>
<path d="M193.833 178.098H187.055V180.356H193.833V178.098Z" fill="#303316"/>
<path d="M193.833 173.643H187.055V175.901H193.833V173.643Z" fill="#303316"/>
<path d="M186.316 180.607H179.538V182.866H186.316V180.607Z" fill="#303316"/>
<path d="M186.316 171.135H179.538V173.393H186.316V171.135Z" fill="#303316"/>
<path d="M178.446 183.117H171.668V185.376H178.446V183.117Z" fill="#303316"/>
<path d="M178.446 168.621H171.668V170.88H178.446V168.621Z" fill="#303316"/>
<path d="M195.106 177.283L193.28 178.219L193.509 178.665L195.335 177.729L195.106 177.283Z" fill="#303316"/>
<path d="M193.505 175.364L193.276 175.811L195.102 176.746L195.331 176.3L193.505 175.364Z" fill="#303316"/>
<path d="M185.956 172.866L185.728 173.312L187.554 174.248L187.782 173.801L185.956 172.866Z" fill="#303316"/>
<path d="M178.198 170.282L177.969 170.729L179.795 171.664L180.024 171.218L178.198 170.282Z" fill="#303316"/>
<path d="M187.375 179.921L185.549 180.857L185.778 181.304L187.604 180.368L187.375 179.921Z" fill="#303316"/>
<path d="M179.797 182.334L177.971 183.27L178.2 183.716L180.025 182.78L179.797 182.334Z" fill="#303316"/>
<path d="M148.372 177.754H155.15V176.248H148.372V177.754Z" fill="#303316"/>
<path d="M156.243 180.357H163.021V178.099H156.243V180.357Z" fill="#303316"/>
<path d="M156.243 175.902H163.021V173.644H156.243V175.902Z" fill="#303316"/>
<path d="M163.759 182.865H170.537V180.607H163.759V182.865Z" fill="#303316"/>
<path d="M163.759 173.393H170.537V171.134H163.759V173.393Z" fill="#303316"/>
<path d="M154.967 177.276L154.738 177.723L156.564 178.659L156.793 178.212L154.967 177.276Z" fill="#303316"/>
<path d="M156.567 175.377L154.741 176.312L154.97 176.759L156.796 175.824L156.567 175.377Z" fill="#303316"/>
<path d="M164.116 172.879L162.29 173.814L162.519 174.261L164.345 173.325L164.116 172.879Z" fill="#303316"/>
<path d="M171.874 170.295L170.048 171.23L170.277 171.677L172.103 170.741L171.874 170.295Z" fill="#303316"/>
<path d="M162.702 179.913L162.473 180.359L164.299 181.295L164.527 180.849L162.702 179.913Z" fill="#303316"/>
<path d="M170.276 182.323L170.047 182.77L171.873 183.705L172.102 183.259L170.276 182.323Z" fill="#303316"/>
<path d="M217.09 176.248H210.312V177.754H217.09V176.248Z" fill="#82554F"/>
<path d="M209.22 178.098H202.441V180.356H209.22V178.098Z" fill="#82554F"/>
<path d="M209.22 173.643H202.441V175.901H209.22V173.643Z" fill="#82554F"/>
<path d="M201.703 180.607H194.925V182.866H201.703V180.607Z" fill="#82554F"/>
<path d="M201.703 171.135H194.925V173.393H201.703V171.135Z" fill="#82554F"/>
<path d="M193.833 183.117H187.055V185.376H193.833V183.117Z" fill="#82554F"/>
<path d="M193.833 168.621H187.055V170.88H193.833V168.621Z" fill="#82554F"/>
<path d="M186.316 185.629H179.538V187.887H186.316V185.629Z" fill="#82554F"/>
<path d="M186.316 166.113H179.538V168.372H186.316V166.113Z" fill="#82554F"/>
<path d="M178.446 188.139H171.668V190.397H178.446V188.139Z" fill="#82554F"/>
<path d="M178.446 163.604H171.668V165.862H178.446V163.604Z" fill="#82554F"/>
<path d="M186.316 176.248H179.538V177.754H186.316V176.248Z" fill="#82554F"/>
<path d="M178.446 178.098H171.668V180.356H178.446V178.098Z" fill="#82554F"/>
<path d="M178.446 173.643H171.668V175.901H178.446V173.643Z" fill="#82554F"/>
<path d="M210.59 177.232L208.764 178.168L208.993 178.615L210.818 177.679L210.59 177.232Z" fill="#82554F"/>
<path d="M203.008 179.791L201.183 180.727L201.412 181.173L203.237 180.237L203.008 179.791Z" fill="#82554F"/>
<path d="M195.104 182.334L193.278 183.27L193.507 183.716L195.333 182.78L195.104 182.334Z" fill="#82554F"/>
<path d="M187.375 184.941L185.549 185.877L185.778 186.324L187.604 185.388L187.375 184.941Z" fill="#82554F"/>
<path d="M179.799 187.326L177.973 188.262L178.202 188.708L180.027 187.772L179.799 187.326Z" fill="#82554F"/>
<path d="M179.799 177.281L177.973 178.217L178.202 178.663L180.027 177.727L179.799 177.281Z" fill="#82554F"/>
<path d="M178.196 175.372L177.967 175.818L179.793 176.754L180.022 176.307L178.196 175.372Z" fill="#82554F"/>
<path d="M178.198 165.288L177.969 165.734L179.795 166.67L180.024 166.223L178.198 165.288Z" fill="#82554F"/>
<path d="M185.772 167.758L185.543 168.205L187.369 169.141L187.598 168.694L185.772 167.758Z" fill="#82554F"/>
<path d="M193.503 170.284L193.274 170.73L195.1 171.666L195.329 171.219L193.503 170.284Z" fill="#82554F"/>
<path d="M201.122 172.694L200.894 173.141L202.72 174.076L202.948 173.63L201.122 172.694Z" fill="#82554F"/>
<path d="M208.984 175.393L208.755 175.84L210.581 176.775L210.81 176.329L208.984 175.393Z" fill="#82554F"/>
<path d="M132.985 177.754H139.764V176.248H132.985V177.754Z" fill="#82554F"/>
<path d="M140.857 180.357H147.635V178.099H140.857V180.357Z" fill="#82554F"/>
<path d="M140.857 175.902H147.635V173.644H140.857V175.902Z" fill="#82554F"/>
<path d="M148.372 182.865H155.15V180.607H148.372V182.865Z" fill="#82554F"/>
<path d="M148.372 173.393H155.15V171.134H148.372V173.393Z" fill="#82554F"/>
<path d="M156.243 185.379H163.021V183.12H156.243V185.379Z" fill="#82554F"/>
<path d="M156.243 170.883H163.021V168.624H156.243V170.883Z" fill="#82554F"/>
<path d="M163.759 187.889H170.537V185.63H163.759V187.889Z" fill="#82554F"/>
<path d="M163.759 168.371H170.537V166.113H163.759V168.371Z" fill="#82554F"/>
<path d="M163.759 177.754H170.537V176.248H163.759V177.754Z" fill="#82554F"/>
<path d="M139.486 177.221L139.257 177.668L141.083 178.604L141.312 178.157L139.486 177.221Z" fill="#82554F"/>
<path d="M147.066 179.782L146.837 180.229L148.663 181.164L148.892 180.718L147.066 179.782Z" fill="#82554F"/>
<path d="M154.966 182.325L154.737 182.771L156.563 183.707L156.792 183.261L154.966 182.325Z" fill="#82554F"/>
<path d="M162.701 184.934L162.472 185.381L164.298 186.317L164.526 185.87L162.701 184.934Z" fill="#82554F"/>
<path d="M170.278 187.317L170.049 187.764L171.875 188.7L172.104 188.253L170.278 187.317Z" fill="#82554F"/>
<path d="M170.277 177.274L170.048 177.721L171.874 178.657L172.103 178.21L170.277 177.274Z" fill="#82554F"/>
<path d="M171.874 175.387L170.048 176.322L170.277 176.769L172.103 175.833L171.874 175.387Z" fill="#82554F"/>
<path d="M171.875 165.301L170.049 166.236L170.278 166.683L172.104 165.747L171.875 165.301Z" fill="#82554F"/>
<path d="M164.298 167.769L162.472 168.705L162.701 169.152L164.527 168.216L164.298 167.769Z" fill="#82554F"/>
<path d="M156.568 170.297L154.742 171.232L154.971 171.679L156.797 170.743L156.568 170.297Z" fill="#82554F"/>
<path d="M148.947 172.709L147.121 173.645L147.35 174.091L149.176 173.156L148.947 172.709Z" fill="#82554F"/>
<path d="M141.082 175.42L139.256 176.355L139.485 176.802L141.311 175.866L141.082 175.42Z" fill="#82554F"/>
<path d="M279.962 323.496L264.496 313.452L279.962 303.412L295.426 313.452L279.962 323.496Z" fill="#F1BF20"/>
<path d="M279.962 297.764L255.796 313.454L279.962 329.142L304.126 313.454L279.962 297.764ZM262.71 313.454L279.962 302.236L297.212 313.454L279.962 324.652L262.71 313.454Z" fill="#E66A06"/>
<path d="M278.43 297.6H271.516L247.087 313.456L271.366 329.22H278.282L253.998 313.456L278.43 297.6ZM288.405 297.6H281.491L305.909 313.456L281.627 329.22H288.544L312.826 313.456L288.405 297.6Z" fill="#303316"/>
<path d="M269.73 297.6H262.819L238.396 313.456L262.677 329.22H269.597L245.312 313.456L269.73 297.6ZM297.105 297.6H290.188L314.609 313.456L290.324 329.22H297.241L321.52 313.456L297.105 297.6Z" fill="#F1BF20"/>
<path d="M340.063 299.533V297.65H305.885L305.803 297.6H298.889L323.309 313.456L299.027 329.22H340.063V327.372H332.012V325.595H330.861V325.489H332.012V325.595H340.063V323.712H332.012V321.934H340.063V320.051H328.248V325.489H311.692L330.226 313.456L311.686 301.417H328.248V306.855H340.063V304.971H332.012V303.194H340.063V301.31H332.012V299.533H340.063Z" fill="#303316"/>
<path d="M224.778 316.853L219.856 313.452L224.778 310.051L229.699 313.452L224.778 316.853Z" fill="#F1BF20"/>
<path d="M261.03 297.6H254.119L254.037 297.65H219.856V299.533H227.91V301.31H219.856V303.194H227.91V304.971H219.856V306.855H231.677V301.417H248.239L229.699 313.456L248.233 325.489H231.677V320.051H219.856V321.934H227.91V323.712H219.856V325.595H227.91V327.372H219.856V329.22H260.895L236.613 313.456L261.03 297.6Z" fill="#303316"/>
<path d="M335.144 316.853L340.062 313.452L335.144 310.051L330.223 313.452L335.144 316.853Z" fill="#F1BF20"/>
<path d="M332.012 325.488H330.86V325.595H332.012V325.488Z" fill="#9E1117"/>
<path d="M332.012 325.488H330.86V325.595H332.012V325.488Z" fill="#9E1117"/>
<path d="M332.012 325.488H330.86V325.595H332.012V325.488Z" fill="#9E1117"/>
<path d="M201.703 312.654H194.925V314.16H201.703V312.654Z" fill="#303316"/>
<path d="M193.833 314.506H187.055V316.764H193.833V314.506Z" fill="#303316"/>
<path d="M193.833 310.051H187.055V312.309H193.833V310.051Z" fill="#303316"/>
<path d="M186.316 317.016H179.538V319.274H186.316V317.016Z" fill="#303316"/>
<path d="M186.316 307.541H179.538V309.799H186.316V307.541Z" fill="#303316"/>
<path d="M178.446 319.527H171.668V321.786H178.446V319.527Z" fill="#303316"/>
<path d="M178.446 305.033H171.668V307.292H178.446V305.033Z" fill="#303316"/>
<path d="M195.103 313.695L193.277 314.631L193.506 315.077L195.332 314.142L195.103 313.695Z" fill="#303316"/>
<path d="M193.505 311.768L193.276 312.215L195.102 313.15L195.331 312.704L193.505 311.768Z" fill="#303316"/>
<path d="M185.956 309.272L185.728 309.719L187.554 310.654L187.782 310.208L185.956 309.272Z" fill="#303316"/>
<path d="M178.201 306.688L177.972 307.135L179.798 308.07L180.027 307.624L178.201 306.688Z" fill="#303316"/>
<path d="M187.371 316.33L185.545 317.266L185.774 317.712L187.6 316.776L187.371 316.33Z" fill="#303316"/>
<path d="M179.796 318.74L177.97 319.676L178.199 320.122L180.025 319.186L179.796 318.74Z" fill="#303316"/>
<path d="M148.372 314.164H155.15V312.658H148.372V314.164Z" fill="#303316"/>
<path d="M156.243 316.764H163.021V314.505H156.243V316.764Z" fill="#303316"/>
<path d="M156.243 312.312H163.021V310.054H156.243V312.312Z" fill="#303316"/>
<path d="M163.759 319.277H170.537V317.019H163.759V319.277Z" fill="#303316"/>
<path d="M163.759 309.801H170.537V307.542H163.759V309.801Z" fill="#303316"/>
<path d="M154.969 313.684L154.74 314.131L156.566 315.067L156.795 314.62L154.969 313.684Z" fill="#303316"/>
<path d="M156.565 311.785L154.739 312.721L154.968 313.167L156.794 312.232L156.565 311.785Z" fill="#303316"/>
<path d="M164.114 309.287L162.288 310.223L162.517 310.669L164.343 309.734L164.114 309.287Z" fill="#303316"/>
<path d="M171.872 306.707L170.046 307.643L170.275 308.089L172.101 307.154L171.872 306.707Z" fill="#303316"/>
<path d="M162.703 316.321L162.474 316.768L164.299 317.704L164.528 317.257L162.703 316.321Z" fill="#303316"/>
<path d="M170.277 318.729L170.048 319.176L171.874 320.112L172.103 319.665L170.277 318.729Z" fill="#303316"/>
<path d="M217.09 312.654H210.312V314.16H217.09V312.654Z" fill="#E66A06"/>
<path d="M209.22 314.506H202.441V316.764H209.22V314.506Z" fill="#E66A06"/>
<path d="M209.22 310.051H202.441V312.309H209.22V310.051Z" fill="#E66A06"/>
<path d="M201.703 317.016H194.925V319.274H201.703V317.016Z" fill="#E66A06"/>
<path d="M201.703 307.541H194.925V309.799H201.703V307.541Z" fill="#E66A06"/>
<path d="M193.833 319.527H187.055V321.786H193.833V319.527Z" fill="#E66A06"/>
<path d="M193.833 305.033H187.055V307.292H193.833V305.033Z" fill="#E66A06"/>
<path d="M186.316 322.037H179.538V324.295H186.316V322.037Z" fill="#E66A06"/>
<path d="M186.316 302.52H179.538V304.778H186.316V302.52Z" fill="#E66A06"/>
<path d="M178.446 324.547H171.668V326.805H178.446V324.547Z" fill="#E66A06"/>
<path d="M178.446 300.012H171.668V302.27H178.446V300.012Z" fill="#E66A06"/>
<path d="M186.316 312.654H179.538V314.16H186.316V312.654Z" fill="#E66A06"/>
<path d="M178.446 314.506H171.668V316.764H178.446V314.506Z" fill="#E66A06"/>
<path d="M178.446 310.051H171.668V312.309H178.446V310.051Z" fill="#E66A06"/>
<path d="M210.588 313.64L208.762 314.576L208.991 315.023L210.817 314.087L210.588 313.64Z" fill="#E66A06"/>
<path d="M203.007 316.201L201.182 317.137L201.411 317.583L203.236 316.647L203.007 316.201Z" fill="#E66A06"/>
<path d="M195.103 318.742L193.277 319.678L193.506 320.124L195.332 319.188L195.103 318.742Z" fill="#E66A06"/>
<path d="M187.37 321.351L185.544 322.287L185.773 322.734L187.599 321.798L187.37 321.351Z" fill="#E66A06"/>
<path d="M179.799 323.738L177.973 324.674L178.202 325.12L180.027 324.184L179.799 323.738Z" fill="#E66A06"/>
<path d="M179.796 313.693L177.97 314.629L178.199 315.076L180.025 314.14L179.796 313.693Z" fill="#E66A06"/>
<path d="M178.199 311.78L177.97 312.227L179.796 313.162L180.025 312.716L178.199 311.78Z" fill="#E66A06"/>
<path d="M178.199 301.694L177.97 302.141L179.796 303.076L180.025 302.63L178.199 301.694Z" fill="#E66A06"/>
<path d="M185.773 304.165L185.544 304.611L187.37 305.547L187.599 305.1L185.773 304.165Z" fill="#E66A06"/>
<path d="M193.506 306.69L193.277 307.137L195.103 308.072L195.332 307.626L193.506 306.69Z" fill="#E66A06"/>
<path d="M201.125 309.1L200.896 309.547L202.722 310.482L202.951 310.036L201.125 309.1Z" fill="#E66A06"/>
<path d="M208.985 311.796L208.756 312.242L210.582 313.178L210.811 312.731L208.985 311.796Z" fill="#E66A06"/>
<path d="M132.985 314.164H139.764V312.658H132.985V314.164Z" fill="#E66A06"/>
<path d="M140.857 316.764H147.635V314.505H140.857V316.764Z" fill="#E66A06"/>
<path d="M140.857 312.312H147.635V310.054H140.857V312.312Z" fill="#E66A06"/>
<path d="M148.372 319.277H155.15V317.019H148.372V319.277Z" fill="#E66A06"/>
<path d="M148.372 309.801H155.15V307.542H148.372V309.801Z" fill="#E66A06"/>
<path d="M156.243 321.787H163.021V319.529H156.243V321.787Z" fill="#E66A06"/>
<path d="M156.243 307.289H163.021V305.031H156.243V307.289Z" fill="#E66A06"/>
<path d="M163.759 324.295H170.537V322.037H163.759V324.295Z" fill="#E66A06"/>
<path d="M163.759 304.781H170.537V302.523H163.759V304.781Z" fill="#E66A06"/>
<path d="M163.759 314.164H170.537V312.658H163.759V314.164Z" fill="#E66A06"/>
<path d="M139.484 313.628L139.255 314.074L141.081 315.01L141.31 314.564L139.484 313.628Z" fill="#E66A06"/>
<path d="M147.064 316.188L146.835 316.635L148.661 317.571L148.89 317.124L147.064 316.188Z" fill="#E66A06"/>
<path d="M154.968 318.731L154.739 319.178L156.565 320.114L156.794 319.667L154.968 318.731Z" fill="#E66A06"/>
<path d="M162.703 321.341L162.474 321.787L164.299 322.723L164.528 322.276L162.703 321.341Z" fill="#E66A06"/>
<path d="M170.276 323.723L170.047 324.17L171.873 325.106L172.102 324.659L170.276 323.723Z" fill="#E66A06"/>
<path d="M170.278 313.68L170.049 314.127L171.875 315.063L172.104 314.616L170.278 313.68Z" fill="#E66A06"/>
<path d="M171.872 311.795L170.046 312.73L170.275 313.177L172.101 312.241L171.872 311.795Z" fill="#E66A06"/>
<path d="M171.873 301.709L170.047 302.645L170.276 303.091L172.102 302.156L171.873 301.709Z" fill="#E66A06"/>
<path d="M164.298 304.18L162.472 305.115L162.701 305.562L164.527 304.626L164.298 304.18Z" fill="#E66A06"/>
<path d="M156.563 306.705L154.737 307.641L154.966 308.087L156.792 307.152L156.563 306.705Z" fill="#E66A06"/>
<path d="M148.945 309.117L147.119 310.053L147.348 310.499L149.174 309.564L148.945 309.117Z" fill="#E66A06"/>
<path d="M141.076 311.832L139.25 312.768L139.479 313.214L141.305 312.279L141.076 311.832Z" fill="#E66A06"/>
<path d="M175.164 118.88L159.697 108.84L175.164 98.7969L190.63 108.84L175.164 118.88Z" fill="#F1BF20"/>
<path d="M175.164 93.1582L150.997 108.849L175.164 124.54L199.33 108.849L175.164 93.1582ZM157.911 108.849L175.164 97.6484L192.413 108.849L175.164 120.049L157.911 108.849Z" fill="#303316"/>
<path d="M173.631 92.9844H166.717L142.3 108.84L166.581 124.605H173.495L149.214 108.84L173.631 92.9844ZM183.609 92.9844H176.696L201.11 108.84L176.825 124.605H183.739L208.021 108.84L183.609 92.9844Z" fill="#82554F"/>
<path d="M164.934 92.9844H158.02L133.6 108.84L157.878 124.605H164.798L140.514 108.84L164.934 92.9844ZM192.306 92.9844H185.387L209.807 108.84L185.522 124.605H192.439L216.721 108.84L192.306 92.9844Z" fill="#F1BF20"/>
<path d="M156.231 92.9844H149.32L149.238 93.0375H115.058V94.921H123.111V96.6982H115.058V98.5817H123.111V100.359H115.058V102.242H126.878V96.8045H143.44L124.9 108.84L143.434 120.876H126.878V115.439H115.058V117.322H123.111V119.099H115.058V120.983H123.111V122.76H115.058V124.605H156.096L131.814 108.84L156.231 92.9844Z" fill="#303316"/>
<path d="M235.267 94.921V93.0375H201.089L201.007 92.9844H194.093L218.51 108.84L194.232 124.605H235.267V122.76H227.216V120.983H235.267V119.099H227.216V117.322H235.267V115.439H223.449V120.876H206.893L225.427 108.84L206.887 96.8045H223.449V102.242H235.267V100.359H227.216V98.5817H235.267V96.6982H227.216V94.921H235.267Z" fill="#303316"/>
<path d="M124.9 108.84L119.979 105.439L115.604 108.462H109.312V109.215H115.604L119.979 112.241L124.9 108.84Z" fill="#F1BF20"/>
<path d="M109.885 108.82L109.92 108.796H109.852L103.895 104.77H95.5049L101.495 108.82L95.5049 112.867H103.895L109.852 108.841H109.92L109.885 108.82Z" fill="#303316"/>
<path d="M240.763 108.462H234.72L230.345 105.439L225.427 108.84L230.345 112.241L234.72 109.215H240.763V108.462Z" fill="#F1BF20"/>
<path d="M254.574 104.77H246.184L240.226 108.796H240.158L240.191 108.82L240.158 108.841H240.226L246.184 112.867H254.574L248.581 108.82L254.574 104.77Z" fill="#303316"/>
<path d="M279.959 94.5752L276.508 97.1643H283.413L279.959 94.5752Z" fill="#E66A06"/>
<path d="M279.959 120.472L276.508 123.064H283.413L279.959 120.472Z" fill="#E66A06"/>
<path d="M283.413 97.165L279.959 99.7541H286.867L283.413 97.165Z" fill="#E66A06"/>
<path d="M286.867 99.7539L283.413 102.343H290.318L286.867 99.7539Z" fill="#E66A06"/>
<path d="M290.318 102.343L286.867 104.935H293.772L290.318 102.343Z" fill="#E66A06"/>
<path d="M283.413 102.343L279.959 104.935H286.867L283.413 102.343Z" fill="#E66A06"/>
<path d="M276.509 102.343L273.055 104.935H279.96L276.509 102.343Z" fill="#E66A06"/>
<path d="M269.601 102.343L266.149 104.935H273.055L269.601 102.343Z" fill="#E66A06"/>
<path d="M290.318 112.702L286.867 115.294H293.772L290.318 112.702Z" fill="#E66A06"/>
<path d="M283.413 112.702L279.959 115.294H286.867L283.413 112.702Z" fill="#E66A06"/>
<path d="M276.509 112.702L273.055 115.294H279.96L276.509 112.702Z" fill="#E66A06"/>
<path d="M269.601 112.702L266.149 115.294H273.055L269.601 112.702Z" fill="#E66A06"/>
<path d="M293.772 104.935L290.318 107.524H297.226L293.772 104.935Z" fill="#E66A06"/>
<path d="M286.867 104.935L283.413 107.524H290.318L286.867 104.935Z" fill="#E66A06"/>
<path d="M279.959 104.935L276.508 107.524H283.413L279.959 104.935Z" fill="#E66A06"/>
<path d="M273.055 104.935L269.601 107.524H276.509L273.055 104.935Z" fill="#E66A06"/>
<path d="M266.149 104.935L262.695 107.524H269.6L266.149 104.935Z" fill="#E66A06"/>
<path d="M293.772 110.113L290.318 112.702H297.226L293.772 110.113Z" fill="#E66A06"/>
<path d="M286.867 110.113L283.413 112.702H290.318L286.867 110.113Z" fill="#E66A06"/>
<path d="M279.959 110.113L276.508 112.702H283.413L279.959 110.113Z" fill="#E66A06"/>
<path d="M273.055 110.113L269.601 112.702H276.509L273.055 110.113Z" fill="#E66A06"/>
<path d="M266.149 110.113L262.695 112.702H269.6L266.149 110.113Z" fill="#E66A06"/>
<path d="M297.226 107.523L293.772 110.112H300.681L297.226 107.523Z" fill="#E66A06"/>
<path d="M290.318 107.523L286.867 110.112H293.772L290.318 107.523Z" fill="#E66A06"/>
<path d="M283.413 107.523L279.959 110.112H286.867L283.413 107.523Z" fill="#E66A06"/>
<path d="M276.509 107.523L273.055 110.112H279.96L276.509 107.523Z" fill="#E66A06"/>
<path d="M269.601 107.523L266.149 110.112H273.055L269.601 107.523Z" fill="#E66A06"/>
<path d="M262.695 107.523L259.241 110.112H266.149L262.695 107.523Z" fill="#E66A06"/>
<path d="M279.959 99.7539L276.508 102.343H283.413L279.959 99.7539Z" fill="#E66A06"/>
<path d="M273.055 99.7539L269.601 102.343H276.509L273.055 99.7539Z" fill="#E66A06"/>
<path d="M286.867 115.294L283.413 117.883H290.318L286.867 115.294Z" fill="#E66A06"/>
<path d="M279.959 115.294L276.508 117.883H283.413L279.959 115.294Z" fill="#E66A06"/>
<path d="M273.055 115.294L269.601 117.883H276.509L273.055 115.294Z" fill="#E66A06"/>
<path d="M276.509 97.165L273.055 99.7541H279.96L276.509 97.165Z" fill="#E66A06"/>
<path d="M283.413 117.883L279.959 120.472H286.867L283.413 117.883Z" fill="#E66A06"/>
<path d="M276.509 117.883L273.055 120.472H279.96L276.509 117.883Z" fill="#E66A06"/>
<path d="M175.164 255.291L159.697 245.247L175.164 235.207L190.63 245.247L175.164 255.291Z" fill="#E66A06"/>
<path d="M175.164 229.549L150.997 245.237L175.164 260.927L199.33 245.237L175.164 229.549ZM157.911 245.237L175.164 234.036L192.413 245.237L175.164 256.437L157.911 245.237Z" fill="#82554F"/>
<path d="M173.631 229.395H166.717L142.3 245.248L166.581 261.015H173.495L149.214 245.248L173.631 229.395ZM183.609 229.395H176.696L201.11 245.248L176.825 261.015H183.739L208.021 245.248L183.609 229.395Z" fill="#9E1117"/>
<path d="M164.934 229.395H158.02L133.6 245.248L157.878 261.015H164.798L140.514 245.248L164.934 229.395ZM192.306 229.395H185.387L209.807 245.248L185.522 261.015H192.439L216.721 245.248L192.306 229.395Z" fill="#303316"/>
<path d="M119.979 248.649L115.058 245.249L119.979 241.848L124.9 245.249L119.979 248.649Z" fill="#303316"/>
<path d="M156.231 229.395H149.32L149.238 229.445H115.058V231.328H123.111V233.105H115.058V234.989H123.111V236.766H115.058V238.65H126.878V233.212H143.44L124.9 245.248L143.434 257.284H126.878V251.846H115.058V253.729H123.111V255.506H115.058V257.39H123.111V259.167H115.058V261.015H156.096L131.814 245.248L156.231 229.395Z" fill="#9E1117"/>
<path d="M235.267 231.328V229.445H201.089L201.007 229.395H194.093L218.51 245.248L194.232 261.015H235.267V259.167H227.216V257.39H235.267V255.506H227.216V253.729H235.267V251.846H223.449V257.284H206.893L225.427 245.248L206.887 233.212H223.449V238.65H235.267V236.766H227.216V234.989H235.267V233.105H227.216V231.328H235.267Z" fill="#9E1117"/>
<path d="M240.764 244.873H233.985V245.626H240.764V244.873Z" fill="#303316"/>
<path d="M248.548 245.248H240.158L246.184 241.18H254.574L248.548 245.248Z" fill="#E66A06"/>
<path d="M246.184 249.274H254.574L248.548 245.203H240.158L246.184 249.274Z" fill="#E66A06"/>
<path d="M109.316 245.623H116.094V244.87H109.316V245.623Z" fill="#303316"/>
<path d="M101.53 245.248H109.92L103.895 241.18H95.5049L101.53 245.248Z" fill="#E66A06"/>
<path d="M103.895 249.274H95.5049L101.53 245.203H109.92L103.895 249.274Z" fill="#E66A06"/>
<path d="M230.345 248.649L235.266 245.249L230.345 241.848L225.427 245.249L230.345 248.649Z" fill="#303316"/>
<path d="M279.959 230.984L276.508 233.573H283.413L279.959 230.984Z" fill="#82554F"/>
<path d="M279.959 256.883L276.508 259.472H283.413L279.959 256.883Z" fill="#82554F"/>
<path d="M283.413 233.572L279.959 236.161H286.867L283.413 233.572Z" fill="#82554F"/>
<path d="M286.867 236.162L283.413 238.754H290.318L286.867 236.162Z" fill="#82554F"/>
<path d="M290.318 238.754L286.867 241.343H293.772L290.318 238.754Z" fill="#82554F"/>
<path d="M283.413 238.754L279.959 241.343H286.867L283.413 238.754Z" fill="#82554F"/>
<path d="M276.509 238.754L273.055 241.343H279.96L276.509 238.754Z" fill="#82554F"/>
<path d="M269.601 238.754L266.149 241.343H273.055L269.601 238.754Z" fill="#82554F"/>
<path d="M290.318 249.113L286.867 251.702H293.772L290.318 249.113Z" fill="#82554F"/>
<path d="M283.413 249.113L279.959 251.702H286.867L283.413 249.113Z" fill="#82554F"/>
<path d="M276.509 249.113L273.055 251.702H279.96L276.509 249.113Z" fill="#82554F"/>
<path d="M269.601 249.113L266.149 251.702H273.055L269.601 249.113Z" fill="#82554F"/>
<path d="M293.772 241.342L290.318 243.931H297.226L293.772 241.342Z" fill="#82554F"/>
<path d="M286.867 241.342L283.413 243.931H290.318L286.867 241.342Z" fill="#82554F"/>
<path d="M279.959 241.342L276.508 243.931H283.413L279.959 241.342Z" fill="#82554F"/>
<path d="M273.055 241.342L269.601 243.931H276.509L273.055 241.342Z" fill="#82554F"/>
<path d="M266.149 241.342L262.695 243.931H269.6L266.149 241.342Z" fill="#82554F"/>
<path d="M293.772 246.521L290.318 249.113H297.226L293.772 246.521Z" fill="#82554F"/>
<path d="M286.867 246.521L283.413 249.113H290.318L286.867 246.521Z" fill="#82554F"/>
<path d="M279.959 246.521L276.508 249.113H283.413L279.959 246.521Z" fill="#82554F"/>
<path d="M273.055 246.521L269.601 249.113H276.509L273.055 246.521Z" fill="#82554F"/>
<path d="M266.149 246.521L262.695 249.113H269.6L266.149 246.521Z" fill="#82554F"/>
<path d="M297.226 243.932L293.772 246.521H300.681L297.226 243.932Z" fill="#82554F"/>
<path d="M290.318 243.932L286.867 246.521H293.772L290.318 243.932Z" fill="#82554F"/>
<path d="M283.413 243.932L279.959 246.521H286.867L283.413 243.932Z" fill="#82554F"/>
<path d="M276.509 243.932L273.055 246.521H279.96L276.509 243.932Z" fill="#82554F"/>
<path d="M269.601 243.932L266.149 246.521H273.055L269.601 243.932Z" fill="#82554F"/>
<path d="M262.695 243.932L259.241 246.521H266.149L262.695 243.932Z" fill="#82554F"/>
<path d="M279.959 236.162L276.508 238.754H283.413L279.959 236.162Z" fill="#82554F"/>
<path d="M273.055 236.162L269.601 238.754H276.509L273.055 236.162Z" fill="#82554F"/>
<path d="M286.867 251.701L283.413 254.29H290.318L286.867 251.701Z" fill="#82554F"/>
<path d="M279.959 251.701L276.508 254.29H283.413L279.959 251.701Z" fill="#82554F"/>
<path d="M273.055 251.701L269.601 254.29H276.509L273.055 251.701Z" fill="#82554F"/>
<path d="M276.509 233.572L273.055 236.161H279.96L276.509 233.572Z" fill="#82554F"/>
<path d="M283.413 254.291L279.959 256.883H286.867L283.413 254.291Z" fill="#82554F"/>
<path d="M276.509 254.291L273.055 256.883H279.96L276.509 254.291Z" fill="#82554F"/>
<path d="M490.313 50.6773L474.85 40.637L490.313 30.5938L505.779 40.637L490.313 50.6773Z" fill="#E66A06"/>
<path d="M490.316 24.9463L466.138 40.6371L490.304 56.3278L514.468 40.6371L490.316 24.9463ZM473.063 40.6371L490.316 29.4365L507.563 40.6371L490.316 51.8287L473.063 40.6371Z" fill="#303316"/>
<path d="M488.784 24.7803H481.87L457.449 40.6364L481.731 56.4009H488.648L464.366 40.6364L488.784 24.7803ZM498.759 24.7803H491.845L516.262 40.6364L491.981 56.4009H498.907L523.188 40.6364L498.759 24.7803Z" fill="#F1BF20"/>
<path d="M480.084 24.7803H473.17L448.75 40.6364L473.032 56.4009H479.949L455.667 40.6364L480.084 24.7803ZM507.46 24.7803H500.546L524.963 40.6364L500.679 56.4009H507.596L531.874 40.6364L507.46 24.7803Z" fill="#82554F"/>
<path d="M550.416 26.7169V24.8334H516.239L516.156 24.7803H509.242L533.663 40.6364L509.381 56.4009H550.416V54.5558H542.365V52.7757H541.214V52.6723H542.365V52.7757H550.416V50.8951H542.365V49.1179H550.416V47.2345H538.601V52.6723H522.043L540.579 40.6364L522.04 28.5974H538.601V34.0353H550.416V32.1548H542.365V30.3776H550.416V28.4941H542.365V26.7169H550.416Z" fill="#9E1117"/>
<path d="M435.131 44.0371L430.21 40.6362L435.131 37.2354L440.05 40.6362L435.131 44.0371Z" fill="#82554F"/>
<path d="M471.384 24.7803H464.473L464.39 24.8334H430.21V26.7169H438.263V28.4941H430.21V30.3776H438.263V32.1548H430.21V34.0353H442.03V28.5974H458.589L440.05 40.6364L458.586 52.6723H442.03V47.2345H430.21V49.1179H438.263V50.8951H430.21V52.7757H438.263V54.5558H430.21V56.4009H471.248L446.964 40.6364L471.384 24.7803Z" fill="#9E1117"/>
<path d="M545.497 44.0371L550.416 40.6362L545.497 37.2354L540.576 40.6362L545.497 44.0371Z" fill="#82554F"/>
<path d="M542.366 52.6729H541.215V52.7791H542.366V52.6729Z" fill="#9E1117"/>
<path d="M542.366 52.6729H541.215V52.7791H542.366V52.6729Z" fill="#9E1117"/>
<path d="M542.366 52.6729H541.215V52.7791H542.366V52.6729Z" fill="#9E1117"/>
<path d="M412.057 41.3449V39.8393H405.562L404.171 39.1249V37.2355H397.801L396.655 36.6451V34.7203H390.184L388.785 34.0029V32.2109H381.995V33.9822L380.557 34.7173H374.086V36.6421L372.941 37.2326H366.57V39.1338L365.179 39.8482H358.699V41.3538H365.123L366.57 42.0948V43.9576H372.805L374.089 44.6159V46.461H380.56L381.998 47.1991V48.9704H388.788V47.1784L390.187 46.461H396.658V44.6159L397.945 43.9576H404.18V42.0859L405.627 41.3449H412.057ZM397.408 43.6712L396.378 44.1997H389.883V46.0507L388.602 46.709H382.163L380.882 46.0507V44.1997H374.387L373.357 43.6712V41.6874H366.903L365.486 40.9612V40.2497L366.962 39.4939H373.36V37.5898L374.541 36.9993H380.873V35.1454L382.154 34.4871H388.593L389.874 35.1454V36.9993H396.207L397.387 37.5898V39.4939H403.785L405.261 40.2497V40.9612L403.844 41.6874H397.39L397.408 43.6712Z" fill="#9E1117"/>
<path d="M427.444 41.3451V39.8395H420.985L419.574 39.1162V37.2357H413.294L412.043 36.595V34.7293H405.495L404.172 34.0532V32.2199H397.793L396.656 31.6295V29.7017H390.138L388.791 29.0109V27.1924H382.002V28.9903L380.611 29.7047H374.093V31.6324L372.956 32.2229H366.576V34.0562L365.254 34.7322H358.706V36.598L357.454 37.2386H351.21V39.1191L349.799 39.8424H343.328V41.348H349.758L351.199 42.0861V43.9518H357.422L358.715 44.6131V46.4612H365.263L366.585 47.1402V48.9705H372.82L374.104 49.6289V51.474H380.629L382.013 52.1825V53.9833H388.803V52.1648L390.149 51.474H396.674V49.6289L397.961 48.9705H404.196V47.1402L405.518 46.4612H412.066V44.6131L413.359 43.9518H419.583V42.0861L421.026 41.348L427.444 41.3451ZM412.796 41.6875V43.6684L411.759 44.1998H405.265V46.0124L403.904 46.7092H397.409V48.693L396.379 49.2185H389.884V51.0459L388.549 51.7308H382.22L380.883 51.0459V49.2185H374.388L373.358 48.693V46.7092H366.863L365.502 46.0124V44.1998H359.022L357.986 43.6684V41.6875H351.538L350.115 40.9583V40.238L351.568 39.4941H357.986V37.5309L359.051 36.9847H365.502V35.1721L366.863 34.4724H373.358V32.5742L374.538 31.9631H380.862V30.1357L382.193 29.4537H388.532L389.863 30.1357V31.9631H396.187L397.368 32.5742V34.4724H403.862L405.223 35.1721V36.9847H411.674L412.739 37.5309V39.4941H419.157L420.61 40.238V40.9583L419.187 41.6875H412.796Z" fill="#82554F"/>
<path d="M388.791 39.0952V37.2354H382.001V39.0775L380.525 39.8392H374.101V41.3448H380.445L382.009 42.1448V43.9486H388.799V42.1271L390.326 41.3448H396.67V39.8392H390.249L388.791 39.0952ZM380.882 40.22L382.299 39.4938H388.466L389.883 40.22V41.0023L388.546 41.6872H382.219L380.882 41.0023V40.22Z" fill="#82554F"/>
<path d="M490.313 187.086L474.85 177.045L490.313 167.002L505.779 177.045L490.313 187.086Z" fill="#303316"/>
<path d="M490.316 161.354L466.138 177.044L490.304 192.735L514.468 177.044L490.316 161.354ZM473.063 177.041L490.316 165.841L507.563 177.041L490.316 188.242L473.063 177.041Z" fill="#9E1117"/>
<path d="M488.784 161.188H481.87L457.449 177.044L481.731 192.811H488.648L464.366 177.044L488.784 161.188ZM498.759 161.188H491.845L516.262 177.044L491.981 192.811H498.907L523.188 177.044L498.759 161.188Z" fill="#303316"/>
<path d="M480.084 161.188H473.17L448.75 177.044L473.032 192.811H479.949L455.667 177.044L480.084 161.188ZM507.46 161.188H500.546L524.963 177.044L500.679 192.811H507.596L531.874 177.044L507.46 161.188Z" fill="#E66A06"/>
<path d="M550.416 163.124V161.241H516.239L516.156 161.188H509.242L533.663 177.044L509.381 192.811H550.416V190.963H542.365V189.186H541.214V189.08H542.365V189.186H550.416V187.302H542.365V185.525H550.416V183.642H538.601V189.08H522.043L540.579 177.044L522.04 165.008H538.601V170.445H550.416V168.562H542.365V166.785H550.416V164.901H542.365V163.124H550.416Z" fill="#82554F"/>
<path d="M435.131 180.444L430.21 177.043L435.131 173.643L440.05 177.043L435.131 180.444Z" fill="#E66A06"/>
<path d="M471.384 161.188H464.473L464.39 161.241H430.21V163.124H438.263V164.901H430.21V166.785H438.263V168.562H430.21V170.445H442.03V165.008H458.589L440.05 177.044L458.586 189.08H442.03V183.642H430.21V185.525H438.263V187.302H430.21V189.186H438.263V190.963H430.21V192.811H471.248L446.964 177.044L471.384 161.188Z" fill="#82554F"/>
<path d="M545.497 180.444L550.416 177.043L545.497 173.643L540.576 177.043L545.497 180.444Z" fill="#E66A06"/>
<path d="M542.366 189.08H541.215V189.186H542.366V189.08Z" fill="#9E1117"/>
<path d="M542.366 189.08H541.215V189.186H542.366V189.08Z" fill="#9E1117"/>
<path d="M542.366 189.08H541.215V189.186H542.366V189.08Z" fill="#9E1117"/>
<path d="M412.057 176.248H405.279V177.754H412.057V176.248Z" fill="#303316"/>
<path d="M404.186 178.098H397.408V180.356H404.186V178.098Z" fill="#303316"/>
<path d="M404.186 173.643H397.408V175.901H404.186V173.643Z" fill="#303316"/>
<path d="M396.671 180.607H389.893V182.866H396.671V180.607Z" fill="#303316"/>
<path d="M396.671 171.135H389.893V173.393H396.671V171.135Z" fill="#303316"/>
<path d="M388.8 183.117H382.021V185.376H388.8V183.117Z" fill="#303316"/>
<path d="M388.8 168.621H382.021V170.88H388.8V168.621Z" fill="#303316"/>
<path d="M405.458 177.285L403.632 178.221L403.861 178.667L405.687 177.731L405.458 177.285Z" fill="#303316"/>
<path d="M403.854 175.362L403.625 175.809L405.451 176.744L405.68 176.298L403.854 175.362Z" fill="#303316"/>
<path d="M396.307 172.868L396.078 173.314L397.904 174.25L398.133 173.803L396.307 172.868Z" fill="#303316"/>
<path d="M388.547 170.28L388.318 170.727L390.144 171.662L390.373 171.216L388.547 170.28Z" fill="#303316"/>
<path d="M397.727 179.925L395.901 180.861L396.13 181.308L397.956 180.372L397.727 179.925Z" fill="#303316"/>
<path d="M390.152 182.336L388.326 183.271L388.555 183.718L390.381 182.782L390.152 182.336Z" fill="#303316"/>
<path d="M358.726 177.754H365.504V176.248H358.726V177.754Z" fill="#303316"/>
<path d="M366.597 180.357H373.375V178.099H366.597V180.357Z" fill="#303316"/>
<path d="M366.597 175.902H373.375V173.644H366.597V175.902Z" fill="#303316"/>
<path d="M374.112 182.865H380.891V180.607H374.112V182.865Z" fill="#303316"/>
<path d="M374.112 173.393H380.891V171.134H374.112V173.393Z" fill="#303316"/>
<path d="M365.32 177.276L365.091 177.723L366.917 178.659L367.146 178.212L365.32 177.276Z" fill="#303316"/>
<path d="M366.922 175.381L365.096 176.316L365.325 176.763L367.151 175.827L366.922 175.381Z" fill="#303316"/>
<path d="M374.47 172.883L372.644 173.818L372.872 174.265L374.698 173.329L374.47 172.883Z" fill="#303316"/>
<path d="M382.23 170.299L380.404 171.234L380.633 171.681L382.459 170.745L382.23 170.299Z" fill="#303316"/>
<path d="M373.051 179.911L372.822 180.357L374.648 181.293L374.877 180.847L373.051 179.911Z" fill="#303316"/>
<path d="M380.623 182.323L380.395 182.77L382.22 183.705L382.449 183.259L380.623 182.323Z" fill="#303316"/>
<path d="M427.444 176.248H420.666V177.754H427.444V176.248Z" fill="#82554F"/>
<path d="M419.573 178.098H412.795V180.356H419.573V178.098Z" fill="#82554F"/>
<path d="M419.573 173.643H412.795V175.901H419.573V173.643Z" fill="#82554F"/>
<path d="M412.057 180.607H405.279V182.866H412.057V180.607Z" fill="#82554F"/>
<path d="M412.057 171.135H405.279V173.393H412.057V171.135Z" fill="#82554F"/>
<path d="M404.186 183.117H397.408V185.376H404.186V183.117Z" fill="#82554F"/>
<path d="M404.186 168.621H397.408V170.88H404.186V168.621Z" fill="#82554F"/>
<path d="M396.671 185.629H389.893V187.887H396.671V185.629Z" fill="#82554F"/>
<path d="M396.671 166.113H389.893V168.372H396.671V166.113Z" fill="#82554F"/>
<path d="M388.8 188.139H382.021V190.397H388.8V188.139Z" fill="#82554F"/>
<path d="M388.8 163.604H382.021V165.862H388.8V163.604Z" fill="#82554F"/>
<path d="M396.671 176.248H389.893V177.754H396.671V176.248Z" fill="#82554F"/>
<path d="M388.8 178.098H382.021V180.356H388.8V178.098Z" fill="#82554F"/>
<path d="M388.8 173.643H382.021V175.901H388.8V173.643Z" fill="#82554F"/>
<path d="M420.944 177.236L419.118 178.172L419.347 178.618L421.173 177.683L420.944 177.236Z" fill="#82554F"/>
<path d="M413.364 179.795L411.538 180.73L411.767 181.177L413.593 180.241L413.364 179.795Z" fill="#82554F"/>
<path d="M405.46 182.334L403.634 183.27L403.863 183.716L405.689 182.78L405.46 182.334Z" fill="#82554F"/>
<path d="M397.729 184.945L395.903 185.881L396.132 186.327L397.958 185.392L397.729 184.945Z" fill="#82554F"/>
<path d="M390.153 187.326L388.327 188.262L388.556 188.708L390.382 187.772L390.153 187.326Z" fill="#82554F"/>
<path d="M390.151 177.285L388.325 178.221L388.554 178.667L390.38 177.731L390.151 177.285Z" fill="#82554F"/>
<path d="M388.548 175.372L388.319 175.818L390.145 176.754L390.374 176.307L388.548 175.372Z" fill="#82554F"/>
<path d="M388.547 165.284L388.318 165.73L390.144 166.666L390.373 166.219L388.547 165.284Z" fill="#82554F"/>
<path d="M396.121 167.758L395.893 168.205L397.719 169.141L397.947 168.694L396.121 167.758Z" fill="#82554F"/>
<path d="M403.853 170.282L403.624 170.729L405.45 171.664L405.679 171.218L403.853 170.282Z" fill="#82554F"/>
<path d="M411.472 172.692L411.243 173.139L413.069 174.074L413.298 173.628L411.472 172.692Z" fill="#82554F"/>
<path d="M419.328 175.385L419.099 175.832L420.925 176.768L421.154 176.321L419.328 175.385Z" fill="#82554F"/>
<path d="M343.339 177.754H350.117V176.248H343.339V177.754Z" fill="#82554F"/>
<path d="M351.21 180.357H357.988V178.099H351.21V180.357Z" fill="#82554F"/>
<path d="M351.21 175.902H357.988V173.644H351.21V175.902Z" fill="#82554F"/>
<path d="M358.726 182.865H365.504V180.607H358.726V182.865Z" fill="#82554F"/>
<path d="M358.726 173.393H365.504V171.134H358.726V173.393Z" fill="#82554F"/>
<path d="M366.597 185.379H373.375V183.12H366.597V185.379Z" fill="#82554F"/>
<path d="M366.597 170.883H373.375V168.624H366.597V170.883Z" fill="#82554F"/>
<path d="M374.112 187.889H380.891V185.63H374.112V187.889Z" fill="#82554F"/>
<path d="M374.112 168.371H380.891V166.113H374.112V168.371Z" fill="#82554F"/>
<path d="M374.112 177.754H380.891V176.248H374.112V177.754Z" fill="#82554F"/>
<path d="M349.835 177.219L349.606 177.666L351.432 178.602L351.661 178.155L349.835 177.219Z" fill="#82554F"/>
<path d="M357.415 179.78L357.187 180.227L359.012 181.163L359.241 180.716L357.415 179.78Z" fill="#82554F"/>
<path d="M365.319 182.323L365.09 182.77L366.916 183.705L367.145 183.259L365.319 182.323Z" fill="#82554F"/>
<path d="M373.053 184.932L372.824 185.379L374.65 186.315L374.879 185.868L373.053 184.932Z" fill="#82554F"/>
<path d="M380.626 187.317L380.397 187.764L382.223 188.7L382.452 188.253L380.626 187.317Z" fill="#82554F"/>
<path d="M380.624 177.274L380.396 177.721L382.221 178.657L382.45 178.21L380.624 177.274Z" fill="#82554F"/>
<path d="M382.228 175.391L380.402 176.326L380.631 176.773L382.457 175.837L382.228 175.391Z" fill="#82554F"/>
<path d="M382.229 165.305L380.403 166.24L380.632 166.687L382.458 165.751L382.229 165.305Z" fill="#82554F"/>
<path d="M374.655 167.773L372.829 168.709L373.058 169.156L374.884 168.22L374.655 167.773Z" fill="#82554F"/>
<path d="M366.92 170.299L365.094 171.234L365.323 171.681L367.149 170.745L366.92 170.299Z" fill="#82554F"/>
<path d="M359.305 172.711L357.479 173.646L357.707 174.093L359.533 173.158L359.305 172.711Z" fill="#82554F"/>
<path d="M351.439 175.43L349.613 176.365L349.842 176.812L351.668 175.876L351.439 175.43Z" fill="#82554F"/>
<path d="M490.313 323.496L474.85 313.452L490.313 303.412L505.779 313.452L490.313 323.496Z" fill="#F1BF20"/>
<path d="M490.316 297.764L466.138 313.454L490.304 329.142L514.468 313.454L490.316 297.764ZM473.063 313.454L490.316 302.236L507.563 313.454L490.316 324.652L473.063 313.454Z" fill="#E66A06"/>
<path d="M488.784 297.6H481.87L457.449 313.456L481.731 329.22H488.648L464.363 313.456L488.784 297.6ZM498.759 297.6H491.845L516.262 313.456L491.981 329.22H498.907L523.188 313.456L498.759 297.6Z" fill="#303316"/>
<path d="M480.084 297.6H473.17L448.75 313.456L473.032 329.22H479.949L455.667 313.456L480.084 297.6ZM507.46 297.6H500.546L524.963 313.456L500.682 329.22H507.598L531.877 313.456L507.46 297.6Z" fill="#F1BF20"/>
<path d="M550.416 299.533V297.65H516.239L516.156 297.6H509.242L533.663 313.456L509.381 329.22H550.416V327.372H542.365V325.595H541.214V325.489H542.365V325.595H550.416V323.712H542.365V321.934H550.416V320.051H538.601V325.489H522.043L540.579 313.456L522.04 301.417H538.601V306.855H550.416V304.971H542.365V303.194H550.416V301.31H542.365V299.533H550.416Z" fill="#303316"/>
<path d="M435.131 316.853L430.21 313.452L435.131 310.051L440.05 313.452L435.131 316.853Z" fill="#F1BF20"/>
<path d="M471.384 297.6H464.473L464.39 297.65H430.21V299.533H438.263V301.31H430.21V303.194H438.263V304.971H430.21V306.855H442.03V301.417H458.589L440.05 313.456L458.586 325.489H442.03V320.051H430.21V321.934H438.263V323.712H430.21V325.595H438.263V327.372H430.21V329.22H471.248L446.964 313.456L471.384 297.6Z" fill="#303316"/>
<path d="M545.497 316.853L550.416 313.452L545.497 310.051L540.576 313.452L545.497 316.853Z" fill="#F1BF20"/>
<path d="M542.366 325.488H541.215V325.595H542.366V325.488Z" fill="#9E1117"/>
<path d="M542.366 325.488H541.215V325.595H542.366V325.488Z" fill="#9E1117"/>
<path d="M542.366 325.488H541.215V325.595H542.366V325.488Z" fill="#9E1117"/>
<path d="M412.057 312.654H405.279V314.16H412.057V312.654Z" fill="#303316"/>
<path d="M404.186 314.506H397.408V316.764H404.186V314.506Z" fill="#303316"/>
<path d="M404.186 310.051H397.408V312.309H404.186V310.051Z" fill="#303316"/>
<path d="M396.671 317.016H389.893V319.274H396.671V317.016Z" fill="#303316"/>
<path d="M396.671 307.541H389.893V309.799H396.671V307.541Z" fill="#303316"/>
<path d="M388.8 319.527H382.021V321.786H388.8V319.527Z" fill="#303316"/>
<path d="M388.8 305.033H382.021V307.292H388.8V305.033Z" fill="#303316"/>
<path d="M405.459 313.697L403.633 314.633L403.862 315.079L405.688 314.143L405.459 313.697Z" fill="#303316"/>
<path d="M403.855 311.766L403.626 312.213L405.452 313.149L405.681 312.702L403.855 311.766Z" fill="#303316"/>
<path d="M396.308 309.274L396.079 309.721L397.905 310.656L398.134 310.21L396.308 309.274Z" fill="#303316"/>
<path d="M388.55 306.688L388.321 307.135L390.147 308.07L390.376 307.624L388.55 306.688Z" fill="#303316"/>
<path d="M397.725 316.332L395.899 317.268L396.128 317.714L397.954 316.778L397.725 316.332Z" fill="#303316"/>
<path d="M390.151 318.744L388.325 319.68L388.554 320.126L390.38 319.19L390.151 318.744Z" fill="#303316"/>
<path d="M358.726 314.164H365.504V312.658H358.726V314.164Z" fill="#303316"/>
<path d="M366.597 316.764H373.375V314.505H366.597V316.764Z" fill="#303316"/>
<path d="M366.597 312.312H373.375V310.054H366.597V312.312Z" fill="#303316"/>
<path d="M374.112 319.277H380.891V317.019H374.112V319.277Z" fill="#303316"/>
<path d="M374.112 309.801H380.891V307.542H374.112V309.801Z" fill="#303316"/>
<path d="M365.319 313.682L365.09 314.129L366.916 315.065L367.145 314.618L365.319 313.682Z" fill="#303316"/>
<path d="M366.917 311.789L365.091 312.725L365.32 313.171L367.146 312.236L366.917 311.789Z" fill="#303316"/>
<path d="M374.469 309.291L372.643 310.227L372.871 310.673L374.697 309.738L374.469 309.291Z" fill="#303316"/>
<path d="M382.226 306.707L380.4 307.643L380.629 308.089L382.455 307.154L382.226 306.707Z" fill="#303316"/>
<path d="M373.055 316.319L372.826 316.766L374.652 317.702L374.881 317.255L373.055 316.319Z" fill="#303316"/>
<path d="M380.625 318.729L380.396 319.176L382.222 320.112L382.451 319.665L380.625 318.729Z" fill="#303316"/>
<path d="M427.444 312.654H420.666V314.16H427.444V312.654Z" fill="#E66A06"/>
<path d="M419.573 314.506H412.795V316.764H419.573V314.506Z" fill="#E66A06"/>
<path d="M419.573 310.051H412.795V312.309H419.573V310.051Z" fill="#E66A06"/>
<path d="M412.057 317.016H405.279V319.274H412.057V317.016Z" fill="#E66A06"/>
<path d="M412.057 307.541H405.279V309.799H412.057V307.541Z" fill="#E66A06"/>
<path d="M404.186 319.527H397.408V321.786H404.186V319.527Z" fill="#E66A06"/>
<path d="M404.186 305.033H397.408V307.292H404.186V305.033Z" fill="#E66A06"/>
<path d="M396.671 322.037H389.893V324.295H396.671V322.037Z" fill="#E66A06"/>
<path d="M396.671 302.52H389.893V304.778H396.671V302.52Z" fill="#E66A06"/>
<path d="M388.8 324.547H382.021V326.805H388.8V324.547Z" fill="#E66A06"/>
<path d="M388.8 300.012H382.021V302.27H388.8V300.012Z" fill="#E66A06"/>
<path d="M396.671 312.654H389.893V314.16H396.671V312.654Z" fill="#E66A06"/>
<path d="M388.8 314.506H382.021V316.764H388.8V314.506Z" fill="#E66A06"/>
<path d="M388.8 310.051H382.021V312.309H388.8V310.051Z" fill="#E66A06"/>
<path d="M420.943 313.644L419.117 314.58L419.346 315.027L421.172 314.091L420.943 313.644Z" fill="#E66A06"/>
<path d="M413.363 316.205L411.537 317.141L411.766 317.587L413.592 316.651L413.363 316.205Z" fill="#E66A06"/>
<path d="M405.459 318.744L403.633 319.68L403.862 320.126L405.688 319.19L405.459 318.744Z" fill="#E66A06"/>
<path d="M397.725 321.355L395.899 322.291L396.128 322.738L397.954 321.802L397.725 321.355Z" fill="#E66A06"/>
<path d="M390.151 323.738L388.325 324.674L388.554 325.12L390.38 324.184L390.151 323.738Z" fill="#E66A06"/>
<path d="M390.151 313.697L388.325 314.633L388.554 315.079L390.38 314.143L390.151 313.697Z" fill="#E66A06"/>
<path d="M388.551 311.778L388.322 312.225L390.148 313.16L390.377 312.714L388.551 311.778Z" fill="#E66A06"/>
<path d="M388.548 301.69L388.319 302.137L390.145 303.072L390.374 302.626L388.548 301.69Z" fill="#E66A06"/>
<path d="M396.122 304.165L395.894 304.611L397.72 305.547L397.948 305.1L396.122 304.165Z" fill="#E66A06"/>
<path d="M403.856 306.69L403.627 307.137L405.453 308.072L405.682 307.626L403.856 306.69Z" fill="#E66A06"/>
<path d="M411.475 309.1L411.246 309.547L413.072 310.482L413.301 310.036L411.475 309.1Z" fill="#E66A06"/>
<path d="M419.331 311.79L419.103 312.236L420.929 313.172L421.157 312.725L419.331 311.79Z" fill="#E66A06"/>
<path d="M343.339 314.164H350.117V312.658H343.339V314.164Z" fill="#E66A06"/>
<path d="M351.21 316.764H357.988V314.505H351.21V316.764Z" fill="#E66A06"/>
<path d="M351.21 312.312H357.988V310.054H351.21V312.312Z" fill="#E66A06"/>
<path d="M358.726 319.277H365.504V317.019H358.726V319.277Z" fill="#E66A06"/>
<path d="M358.726 309.801H365.504V307.542H358.726V309.801Z" fill="#E66A06"/>
<path d="M366.597 321.787H373.375V319.529H366.597V321.787Z" fill="#E66A06"/>
<path d="M366.597 307.289H373.375V305.031H366.597V307.289Z" fill="#E66A06"/>
<path d="M374.112 324.295H380.891V322.037H374.112V324.295Z" fill="#E66A06"/>
<path d="M374.112 304.781H380.891V302.523H374.112V304.781Z" fill="#E66A06"/>
<path d="M374.112 314.164H380.891V312.658H374.112V314.164Z" fill="#E66A06"/>
<path d="M349.837 313.628L349.608 314.074L351.434 315.01L351.663 314.564L349.837 313.628Z" fill="#E66A06"/>
<path d="M357.416 316.186L357.188 316.633L359.013 317.569L359.242 317.122L357.416 316.186Z" fill="#E66A06"/>
<path d="M365.318 318.731L365.089 319.178L366.915 320.114L367.144 319.667L365.318 318.731Z" fill="#E66A06"/>
<path d="M373.052 321.339L372.823 321.785L374.649 322.721L374.878 322.274L373.052 321.339Z" fill="#E66A06"/>
<path d="M380.627 323.725L380.398 324.172L382.224 325.108L382.453 324.661L380.627 323.725Z" fill="#E66A06"/>
<path d="M380.626 313.682L380.397 314.129L382.223 315.065L382.452 314.618L380.626 313.682Z" fill="#E66A06"/>
<path d="M382.226 311.799L380.4 312.734L380.629 313.181L382.455 312.245L382.226 311.799Z" fill="#E66A06"/>
<path d="M382.227 301.713L380.401 302.648L380.63 303.095L382.456 302.159L382.227 301.713Z" fill="#E66A06"/>
<path d="M374.652 304.184L372.826 305.119L373.055 305.566L374.881 304.63L374.652 304.184Z" fill="#E66A06"/>
<path d="M366.918 306.711L365.092 307.646L365.321 308.093L367.147 307.158L366.918 306.711Z" fill="#E66A06"/>
<path d="M359.3 309.121L357.474 310.057L357.702 310.503L359.528 309.568L359.3 309.121Z" fill="#E66A06"/>
<path d="M351.435 311.844L349.609 312.779L349.838 313.226L351.664 312.29L351.435 311.844Z" fill="#E66A06"/>
<path d="M385.517 118.88L370.051 108.84L385.517 98.7969L400.984 108.84L385.517 118.88Z" fill="#F1BF20"/>
<path d="M385.517 93.1582L361.351 108.849L385.517 124.54L409.683 108.849L385.517 93.1582ZM368.265 108.849L385.517 97.6484L402.767 108.849L385.517 120.049L368.265 108.849Z" fill="#303316"/>
<path d="M383.985 92.9844H377.071L352.653 108.84L376.935 124.605H383.849L359.564 108.84L383.985 92.9844ZM393.963 92.9844H387.049L411.463 108.84L387.185 124.605H394.105L418.386 108.84L393.963 92.9844Z" fill="#82554F"/>
<path d="M375.287 92.9844H368.373L343.95 108.84L368.232 124.605H375.152L350.867 108.84L375.287 92.9844ZM402.66 92.9844H395.746L420.166 108.84L395.876 124.605H402.793L427.074 108.84L402.66 92.9844Z" fill="#F1BF20"/>
<path d="M445.62 94.921V93.0375H411.443L411.36 92.9844H404.446L428.864 108.84L404.582 124.605H445.62V122.76H437.567V120.983H436.415V120.876H437.567V120.983H445.62V119.099H437.567V117.322H445.62V115.439H433.803V120.876H417.247L435.781 108.84L417.241 96.8045H433.803V102.242H445.62V100.359H437.567V98.5817H445.62V96.6982H437.567V94.921H445.62Z" fill="#303316"/>
<path d="M330.332 112.241L325.411 108.84L330.332 105.439L335.254 108.84L330.332 112.241Z" fill="#F1BF20"/>
<path d="M366.585 92.9844H359.674L359.591 93.0375H325.411V94.921H333.465V96.6982H325.411V98.5817H333.465V100.359H325.411V102.242H337.232V96.8045H353.793L335.254 108.84L353.787 120.876H337.232V115.439H325.411V117.322H333.465V119.099H325.411V120.983H333.465V122.76H325.411V124.605H366.449L342.168 108.84L366.585 92.9844Z" fill="#303316"/>
<path d="M437.566 120.877H436.415V120.983H437.566V120.877Z" fill="#9E1117"/>
<path d="M437.566 120.877H436.415V120.983H437.566V120.877Z" fill="#9E1117"/>
<path d="M437.566 120.877H436.415V120.983H437.566V120.877Z" fill="#9E1117"/>
<path d="M451.117 108.463H444.339V109.216H451.117V108.463Z" fill="#F1BF20"/>
<path d="M458.899 108.841H450.512L456.537 104.77H464.924L458.899 108.841Z" fill="#303316"/>
<path d="M456.537 112.867H464.924L458.899 108.796H450.512L456.537 112.867Z" fill="#303316"/>
<path d="M319.669 109.219H326.447V108.466H319.669V109.219Z" fill="#F1BF20"/>
<path d="M311.884 108.841H320.271L314.246 104.77H305.858L311.884 108.841Z" fill="#303316"/>
<path d="M314.246 112.867H305.858L311.884 108.796H320.271L314.246 112.867Z" fill="#303316"/>
<path d="M440.699 112.241L445.62 108.84L440.699 105.439L435.78 108.84L440.699 112.241Z" fill="#F1BF20"/>
<path d="M490.313 94.5752L486.859 97.1643H493.767L490.313 94.5752Z" fill="#E66A06"/>
<path d="M490.313 120.472L486.859 123.064H493.767L490.313 120.472Z" fill="#E66A06"/>
<path d="M493.768 97.165L490.313 99.7541H497.222L493.768 97.165Z" fill="#E66A06"/>
<path d="M497.222 99.7539L493.768 102.343H500.673L497.222 99.7539Z" fill="#E66A06"/>
<path d="M500.672 102.343L497.221 104.935H504.126L500.672 102.343Z" fill="#E66A06"/>
<path d="M493.768 102.343L490.313 104.935H497.222L493.768 102.343Z" fill="#E66A06"/>
<path d="M486.859 102.343L483.408 104.935H490.313L486.859 102.343Z" fill="#E66A06"/>
<path d="M479.954 102.343L476.5 104.935H483.408L479.954 102.343Z" fill="#E66A06"/>
<path d="M500.672 112.702L497.221 115.294H504.126L500.672 112.702Z" fill="#E66A06"/>
<path d="M493.768 112.702L490.313 115.294H497.222L493.768 112.702Z" fill="#E66A06"/>
<path d="M486.859 112.702L483.408 115.294H490.313L486.859 112.702Z" fill="#E66A06"/>
<path d="M479.954 112.702L476.5 115.294H483.408L479.954 112.702Z" fill="#E66A06"/>
<path d="M504.126 104.935L500.672 107.524H507.58L504.126 104.935Z" fill="#E66A06"/>
<path d="M497.222 104.935L493.768 107.524H500.673L497.222 104.935Z" fill="#E66A06"/>
<path d="M490.313 104.935L486.859 107.524H493.767L490.313 104.935Z" fill="#E66A06"/>
<path d="M483.408 104.935L479.954 107.524H486.859L483.408 104.935Z" fill="#E66A06"/>
<path d="M476.5 104.935L473.049 107.524H479.954L476.5 104.935Z" fill="#E66A06"/>
<path d="M504.126 110.113L500.672 112.702H507.58L504.126 110.113Z" fill="#E66A06"/>
<path d="M497.222 110.113L493.768 112.702H500.673L497.222 110.113Z" fill="#E66A06"/>
<path d="M490.313 110.113L486.859 112.702H493.767L490.313 110.113Z" fill="#E66A06"/>
<path d="M483.408 110.113L479.954 112.702H486.859L483.408 110.113Z" fill="#E66A06"/>
<path d="M476.5 110.113L473.049 112.702H479.954L476.5 110.113Z" fill="#E66A06"/>
<path d="M507.58 107.523L504.126 110.112H511.031L507.58 107.523Z" fill="#E66A06"/>
<path d="M500.672 107.523L497.221 110.112H504.126L500.672 107.523Z" fill="#E66A06"/>
<path d="M493.768 107.523L490.313 110.112H497.222L493.768 107.523Z" fill="#E66A06"/>
<path d="M486.859 107.523L483.408 110.112H490.313L486.859 107.523Z" fill="#E66A06"/>
<path d="M479.954 107.523L476.5 110.112H483.408L479.954 107.523Z" fill="#E66A06"/>
<path d="M473.049 107.523L469.595 110.112H476.5L473.049 107.523Z" fill="#E66A06"/>
<path d="M490.313 99.7539L486.859 102.343H493.767L490.313 99.7539Z" fill="#E66A06"/>
<path d="M483.408 99.7539L479.954 102.343H486.859L483.408 99.7539Z" fill="#E66A06"/>
<path d="M497.222 115.294L493.768 117.883H500.673L497.222 115.294Z" fill="#E66A06"/>
<path d="M490.313 115.294L486.859 117.883H493.767L490.313 115.294Z" fill="#E66A06"/>
<path d="M483.408 115.294L479.954 117.883H486.859L483.408 115.294Z" fill="#E66A06"/>
<path d="M486.859 97.165L483.408 99.7541H490.313L486.859 97.165Z" fill="#E66A06"/>
<path d="M493.768 117.883L490.313 120.472H497.222L493.768 117.883Z" fill="#E66A06"/>
<path d="M486.859 117.883L483.408 120.472H490.313L486.859 117.883Z" fill="#E66A06"/>
<path d="M385.517 255.291L370.051 245.247L385.517 235.207L400.984 245.247L385.517 255.291Z" fill="#E66A06"/>
<path d="M385.517 229.549L361.351 245.237L385.517 260.927L409.683 245.237L385.517 229.549ZM368.265 245.237L385.517 234.036L402.767 245.237L385.517 256.437L368.265 245.237Z" fill="#82554F"/>
<path d="M383.985 229.395H377.071L352.653 245.248L376.935 261.015H383.849L359.564 245.248L383.985 229.395ZM393.963 229.395H387.049L411.463 245.248L387.185 261.015H394.105L418.386 245.248L393.963 229.395Z" fill="#9E1117"/>
<path d="M375.287 229.395H368.373L343.95 245.248L368.232 261.015H375.152L350.867 245.248L375.287 229.395ZM402.66 229.395H395.746L420.166 245.248L395.876 261.015H402.793L427.074 245.248L402.66 229.395Z" fill="#303316"/>
<path d="M330.332 248.649L325.411 245.249L330.332 241.848L335.254 245.249L330.332 248.649Z" fill="#303316"/>
<path d="M366.585 229.395H359.674L359.591 229.445H325.411V231.328H333.465V233.105H325.411V234.989H333.465V236.766H325.411V238.65H337.232V233.212H353.793L335.254 245.248L353.787 257.284H337.232V251.846H325.411V253.729H333.465V255.506H325.411V257.39H333.465V259.167H325.411V261.015H366.449L342.168 245.248L366.585 229.395Z" fill="#9E1117"/>
<path d="M445.62 231.328V229.445H411.443L411.36 229.395H404.446L428.864 245.248L404.582 261.015H445.62V259.167H437.567V257.39H445.62V255.506H437.567V253.729H445.62V251.846H433.803V257.284H417.247L435.781 245.248L417.241 233.212H433.803V238.65H445.62V236.766H437.567V234.989H445.62V233.105H437.567V231.328H445.62Z" fill="#9E1117"/>
<path d="M451.117 244.873H444.339V245.626H451.117V244.873Z" fill="#303316"/>
<path d="M458.899 245.248H450.512L456.537 241.18H464.924L458.899 245.248Z" fill="#E66A06"/>
<path d="M456.537 249.274H464.924L458.899 245.203H450.512L456.537 249.274Z" fill="#E66A06"/>
<path d="M319.669 245.623H326.447V244.87H319.669V245.623Z" fill="#303316"/>
<path d="M311.884 245.248H320.271L314.246 241.18H305.858L311.884 245.248Z" fill="#E66A06"/>
<path d="M314.246 249.274H305.858L311.884 245.203H320.271L314.246 249.274Z" fill="#E66A06"/>
<path d="M440.699 248.649L445.62 245.249L440.699 241.848L435.78 245.249L440.699 248.649Z" fill="#303316"/>
<path d="M490.313 230.984L486.859 233.573H493.767L490.313 230.984Z" fill="#82554F"/>
<path d="M490.313 256.883L486.859 259.472H493.767L490.313 256.883Z" fill="#82554F"/>
<path d="M493.768 233.572L490.313 236.161H497.222L493.768 233.572Z" fill="#82554F"/>
<path d="M497.222 236.162L493.768 238.754H500.673L497.222 236.162Z" fill="#82554F"/>
<path d="M500.672 238.754L497.221 241.343H504.126L500.672 238.754Z" fill="#82554F"/>
<path d="M493.768 238.754L490.313 241.343H497.222L493.768 238.754Z" fill="#82554F"/>
<path d="M486.859 238.754L483.408 241.343H490.313L486.859 238.754Z" fill="#82554F"/>
<path d="M479.954 238.754L476.5 241.343H483.408L479.954 238.754Z" fill="#82554F"/>
<path d="M500.672 249.113L497.221 251.702H504.126L500.672 249.113Z" fill="#82554F"/>
<path d="M493.768 249.113L490.313 251.702H497.222L493.768 249.113Z" fill="#82554F"/>
<path d="M486.859 249.113L483.408 251.702H490.313L486.859 249.113Z" fill="#82554F"/>
<path d="M479.954 249.113L476.5 251.702H483.408L479.954 249.113Z" fill="#82554F"/>
<path d="M504.126 241.342L500.672 243.931H507.58L504.126 241.342Z" fill="#82554F"/>
<path d="M497.222 241.342L493.768 243.931H500.673L497.222 241.342Z" fill="#82554F"/>
<path d="M490.313 241.342L486.859 243.931H493.767L490.313 241.342Z" fill="#82554F"/>
<path d="M483.408 241.342L479.954 243.931H486.859L483.408 241.342Z" fill="#82554F"/>
<path d="M476.5 241.342L473.049 243.931H479.954L476.5 241.342Z" fill="#82554F"/>
<path d="M504.126 246.521L500.672 249.113H507.58L504.126 246.521Z" fill="#82554F"/>
<path d="M497.222 246.521L493.768 249.113H500.673L497.222 246.521Z" fill="#82554F"/>
<path d="M490.313 246.521L486.859 249.113H493.767L490.313 246.521Z" fill="#82554F"/>
<path d="M483.408 246.521L479.954 249.113H486.859L483.408 246.521Z" fill="#82554F"/>
<path d="M476.5 246.521L473.049 249.113H479.954L476.5 246.521Z" fill="#82554F"/>
<path d="M507.58 243.932L504.126 246.521H511.031L507.58 243.932Z" fill="#82554F"/>
<path d="M500.672 243.932L497.221 246.521H504.126L500.672 243.932Z" fill="#82554F"/>
<path d="M493.768 243.932L490.313 246.521H497.222L493.768 243.932Z" fill="#82554F"/>
<path d="M486.859 243.932L483.408 246.521H490.313L486.859 243.932Z" fill="#82554F"/>
<path d="M479.954 243.932L476.5 246.521H483.408L479.954 243.932Z" fill="#82554F"/>
<path d="M473.049 243.932L469.595 246.521H476.5L473.049 243.932Z" fill="#82554F"/>
<path d="M490.313 236.162L486.859 238.754H493.767L490.313 236.162Z" fill="#82554F"/>
<path d="M483.408 236.162L479.954 238.754H486.859L483.408 236.162Z" fill="#82554F"/>
<path d="M497.222 251.701L493.768 254.29H500.673L497.222 251.701Z" fill="#82554F"/>
<path d="M490.313 251.701L486.859 254.29H493.767L490.313 251.701Z" fill="#82554F"/>
<path d="M483.408 251.701L479.954 254.29H486.859L483.408 251.701Z" fill="#82554F"/>
<path d="M486.859 233.572L483.408 236.161H490.313L486.859 233.572Z" fill="#82554F"/>
<path d="M493.768 254.291L490.313 256.883H497.222L493.768 254.291Z" fill="#82554F"/>
<path d="M486.859 254.291L483.408 256.883H490.313L486.859 254.291Z" fill="#82554F"/>
<path d="M637.798 41.3451V39.8395H631.338L629.927 39.1162V37.2357H623.66L622.408 36.595V34.7293H615.86L614.537 34.0532V32.2199H608.158L607.021 31.6295V29.7017H600.503L599.151 29.008V27.1924H592.361V28.9903L590.97 29.7047H584.452V31.6324L583.315 32.2229H576.936V34.0562L575.613 34.7322H569.08V36.598L567.828 37.2386H561.561V39.1191L560.15 39.8424H553.69V41.348H560.117L561.561 42.0861V43.9518H567.784L569.077 44.6131V46.4612H575.625L576.948 47.1402V48.9705H583.18L584.467 49.6289V51.474H590.991L592.376 52.1825V53.9833H599.166V52.1648L600.512 51.474H607.036V49.6289L608.32 48.9705H614.555V47.1402L615.878 46.4612H622.426V44.6131L623.719 43.9518H629.942V42.0861L631.383 41.348L637.798 41.3451ZM623.149 41.6875V43.6684L622.113 44.1998H615.618V46.0124L614.257 46.7092H607.748V48.693L606.717 49.2185H600.222V51.0459L598.885 51.7308H592.579L591.245 51.0459V49.2185H584.75L583.72 48.693V46.7092H577.21L575.849 46.0124V44.1998H569.369L568.333 43.6684V41.6875H561.886L560.463 40.9583V40.238L561.915 39.4941H568.333V37.5309L569.399 36.9847H575.849V35.1721L577.21 34.4724H583.72V32.5742L584.901 31.9631H591.224V30.1357L592.556 29.4537H598.894L600.225 30.1357V31.9631H606.549L607.73 32.5742V34.4724H614.239L615.6 35.1721V36.9847H622.051L623.117 37.5309V39.4941H629.535L630.987 40.238V40.9583L629.564 41.6875H623.149Z" fill="#82554F"/>
<path d="M553.691 177.754H560.469V176.248H553.691V177.754Z" fill="#82554F"/>
<path d="M560.187 177.221L559.958 177.668L561.784 178.604L562.013 178.157L560.187 177.221Z" fill="#82554F"/>
<path d="M561.797 175.435L559.971 176.371L560.2 176.818L562.026 175.882L561.797 175.435Z" fill="#82554F"/>
<path d="M553.691 314.164H560.469V312.658H553.691V314.164Z" fill="#E66A06"/>
<path d="M560.185 313.628L559.956 314.074L561.782 315.01L562.011 314.564L560.185 313.628Z" fill="#E66A06"/>
<path d="M561.793 311.85L559.967 312.785L560.196 313.232L562.022 312.296L561.793 311.85Z" fill="#E66A06"/>
<path d="M585.642 92.9844H578.728L554.305 108.84L578.586 124.605H585.506L561.222 108.84L585.642 92.9844ZM613.014 92.9844H606.101L630.521 108.84L606.236 124.605H613.156L637.438 108.84L613.014 92.9844Z" fill="#F1BF20"/>
<path d="M540.686 112.241L535.765 108.84L540.686 105.439L545.607 108.84L540.686 112.241Z" fill="#F1BF20"/>
<path d="M576.939 92.9844H570.027L569.945 93.0375H535.765V94.921H543.818V96.6982H535.765V98.5817H543.818V100.359H535.765V102.242H547.585V96.8045H564.147L545.607 108.84L564.141 120.876H547.585V115.439H535.765V117.322H543.818V119.099H535.765V120.983H543.818V122.76H535.765V124.605H576.803L552.521 108.84L576.939 92.9844Z" fill="#303316"/>
<path d="M530.02 109.219H536.798V108.466H530.02V109.219Z" fill="#F1BF20"/>
<path d="M522.238 108.841H530.625L524.6 104.77H516.213L522.238 108.841Z" fill="#303316"/>
<path d="M524.6 112.867H516.213L522.238 108.796H530.625L524.6 112.867Z" fill="#303316"/>
<path d="M585.642 229.395H578.728L554.305 245.248L578.586 261.015H585.506L561.222 245.248L585.642 229.395ZM613.014 229.395H606.101L630.521 245.248L606.236 261.015H613.156L637.438 245.248L613.014 229.395Z" fill="#303316"/>
<path d="M540.686 248.649L535.765 245.249L540.686 241.848L545.607 245.249L540.686 248.649Z" fill="#303316"/>
<path d="M576.939 229.395H570.027L569.945 229.445H535.765V231.328H543.818V233.105H535.765V234.989H543.818V236.766H535.765V238.65H547.585V233.212H564.147L545.607 245.248L564.141 257.284H547.585V251.846H535.765V253.729H543.818V255.506H535.765V257.39H543.818V259.167H535.765V261.015H576.803L552.521 245.248L576.939 229.395Z" fill="#9E1117"/>
<path d="M530.02 245.623H536.798V244.87H530.02V245.623Z" fill="#303316"/>
<path d="M522.238 245.248H530.625L524.6 241.18H516.213L522.238 245.248Z" fill="#E66A06"/>
<path d="M524.6 249.274H516.213L522.238 245.203H530.625L524.6 249.274Z" fill="#E66A06"/>
</g>
</g>
</g>
<defs>
<clipPath id="clip0_7032_82946">
<rect width="561" height="354.26" rx="30" fill="white"/>
</clipPath>
<clipPath id="clip1_7032_82946">
<rect width="790.127" height="354.26" fill="white" transform="translate(-114.849 -0.129883)"/>
</clipPath>
</defs>
</svg>
