<svg width="64" height="64" viewBox="0 0 64 64" fill="none" xmlns="http://www.w3.org/2000/svg">
<rect x="3" y="3" width="58" height="58" rx="29" stroke="#9244D4" stroke-width="6"/>
<g clip-path="url(#clip0_3288_18617)">
<rect width="64" height="64" rx="32" fill="#E2E4E9"/>
<path d="M46.6456 27.2286C44.5056 26.4734 43.0631 28.0941 43.0631 28.0941C42.7125 24.2771 41.572 18.6348 40.2109 15.1011C40.2109 15.1011 40.2616 13.9677 40.9674 13.9433C41.1572 13.9363 41.3937 14.0094 41.6899 14.2062C42.458 14.7165 43.285 16.1769 44.0555 18.0739C45.1371 20.7382 46.107 24.2636 46.6449 27.2293L46.6456 27.2286Z" fill="#6D1249" stroke="black" stroke-width="0.641089" stroke-linecap="round" stroke-linejoin="round"/>
<path d="M46.7712 32.9059C46.5391 33.2072 46.2667 33.2675 45.9718 33.1572C45.0371 32.8091 43.8863 30.7467 43.1452 29.2235C43.1266 28.8702 43.099 28.492 43.0625 28.0939C43.0625 28.0939 44.505 26.4726 46.6449 27.2284C47.145 29.9844 47.2725 32.2565 46.7718 32.9059H46.7712Z" fill="#F5D256" stroke="black" stroke-width="0.641089" stroke-linecap="round" stroke-linejoin="round"/>
<path d="M44.0566 18.0738C43.9547 18.0853 43.8451 18.0705 43.7496 18.0372C43.2328 17.8596 42.9213 17.3397 42.7104 16.8352C42.5001 16.3313 42.334 15.7838 41.9462 15.3991C41.7673 15.2215 41.5493 15.0882 41.357 14.9254C41.039 14.6561 40.8993 14.3458 40.9685 13.9432C41.1583 13.9362 41.3948 14.0092 41.691 14.2061C42.4591 14.7164 43.2861 16.1768 44.0566 18.0738Z" fill="#961E6C"/>
<path d="M46.6456 27.2285C44.5056 26.4733 43.0631 28.094 43.0631 28.094C42.7125 24.2769 41.572 18.6347 40.2109 15.101C40.2109 15.101 40.2917 13.2771 41.6899 14.2054C43.5369 15.4318 45.7237 22.1498 46.6449 27.2278L46.6456 27.2285Z" stroke="black" stroke-width="0.641089" stroke-linecap="round" stroke-linejoin="round"/>
<path d="M42.5412 19.4649C43.1759 20.6131 44.0023 21.6786 44.3715 22.9377C44.5908 23.6839 44.6113 24.5692 44.1029 25.1577C44.0369 25.2347 43.9401 25.311 43.8433 25.2796C43.7061 25.2353 43.7157 25.0417 43.733 24.8981C43.7901 24.4372 43.633 23.973 43.4054 23.5678C43.1778 23.1627 42.881 22.8024 42.6233 22.4158C41.7584 21.1182 41.3623 19.5739 40.9808 18.0622C40.8353 17.4865 40.6897 16.9101 40.5782 16.3267C40.5295 16.0709 40.2192 15.2068 40.6378 15.1715C41.034 15.1382 41.1167 15.9838 41.2039 16.2511C41.3738 16.7723 41.5552 17.2897 41.7591 17.798C41.9873 18.368 42.2438 18.927 42.5412 19.4642V19.4649Z" fill="#450832"/>
<path d="M65.1999 64.8206H4.4887C4.4887 64.8206 3.86492 53.9945 7.57619 50.0806C8.0679 49.562 9.16994 49.0587 10.622 48.5779C11.0592 48.4324 11.5272 48.2901 12.0202 48.1497C15.9975 47.0162 21.5712 46.0296 24.9946 45.3058L27.0897 45.2449L28.484 45.2039L44.3594 44.7397L45.0421 44.7198C49.6785 45.9001 58.7127 47.8003 61.5406 49.6248C61.7765 49.778 61.9707 49.9306 62.1143 50.0819C65.8256 53.9958 65.2012 64.8219 65.2012 64.8219L65.1999 64.8206Z" fill="#E86F3A" stroke="black" stroke-width="0.641089" stroke-linecap="round" stroke-linejoin="round"/>
<path d="M43.1451 30.9928C43.1009 31.5294 43.0047 31.9012 42.8496 32.0615C41.8784 33.0603 40.5039 29.7369 39.8275 27.8553C39.7608 27.6675 39.6999 27.4944 39.648 27.3418C39.5038 26.9206 39.4204 26.6507 39.4204 26.6507L38.7877 24.1652L37.994 21.0514L37.985 21.0149L37.8767 20.5898C37.7587 17.578 37.3856 14.4995 36.715 12.7512C36.7118 12.7403 36.708 12.7307 36.7035 12.7198C36.6913 12.6897 36.6798 12.6602 36.6676 12.6307C36.6323 12.5429 36.5958 12.4589 36.5586 12.3788C36.6887 12.0967 37.0259 11.587 37.735 11.7447C37.8998 11.7813 38.0837 11.8537 38.2902 11.973C38.9005 12.3249 39.5179 13.3712 40.098 14.8143C40.1359 14.9085 40.1737 15.004 40.2109 15.1008C40.7904 16.6048 41.3296 18.4922 41.7854 20.4571C42.2201 22.3317 42.5778 24.2774 42.8214 26.0321C42.9855 27.2085 43.0964 28.2989 43.1458 29.2228C43.1823 29.9177 43.1836 30.519 43.1445 30.9922L43.1451 30.9928Z" fill="#6D1249" stroke="black" stroke-width="0.641089" stroke-linecap="round" stroke-linejoin="round"/>
<path d="M40.0991 14.8151C40.0581 14.9914 40.01 15.1657 39.9548 15.3382C39.6997 15.4029 39.4247 15.2933 39.2285 15.117C39.0323 14.9413 38.8996 14.708 38.7695 14.4791C38.506 14.0137 38.2431 13.5476 37.9796 13.0828C37.8572 12.8655 37.7322 12.6443 37.6738 12.4007C37.6219 12.1827 37.6296 11.9404 37.7354 11.7449C37.9002 11.7814 38.0841 11.8539 38.2906 11.9731C38.9009 12.3251 39.5183 13.3713 40.0984 14.8144L40.0991 14.8151Z" fill="#961E6C"/>
<path d="M43.1445 30.9929C43.1003 31.5295 43.0041 31.9014 42.849 32.0616C41.8777 33.0605 40.5032 29.737 39.8269 27.8554C39.7602 27.6676 39.6993 27.4945 39.6474 27.3419C39.5031 26.9207 39.4198 26.6508 39.4198 26.6508L38.787 24.1653L37.9933 21.0516L37.876 20.59C37.7491 17.3512 37.3273 14.0348 36.5586 12.3795C36.7182 12.0321 37.1939 11.339 38.2902 11.9737C38.9402 12.3494 39.598 13.5111 40.2109 15.1016C40.7904 16.6056 41.3296 18.493 41.7854 20.4579C42.2201 22.3325 42.5778 24.2782 42.8214 26.0328C42.9855 27.2092 43.0964 28.2997 43.1458 29.2235C43.1823 29.9185 43.1836 30.5198 43.1445 30.9929Z" stroke="black" stroke-width="0.641089" stroke-linecap="round" stroke-linejoin="round"/>
<path d="M38.4854 20.7483C38.4046 20.9329 38.2187 21.1304 38.0354 21.0477C38.0161 21.0393 37.9988 21.0284 37.9834 21.015L37.8751 20.5899C37.7571 17.5781 37.384 14.4996 36.7135 12.7513L36.491 12.7712L36.4141 12.7776C36.4833 12.7039 36.5705 12.6558 36.666 12.6308C36.8526 12.5834 37.0686 12.6238 37.2359 12.7276C37.4879 12.8847 37.6488 13.1527 37.7809 13.4194C38.6463 15.1618 38.6822 17.1845 38.7002 19.1302C38.7053 19.679 38.7066 20.2463 38.4848 20.7477L38.4854 20.7483Z" fill="#450832"/>
<path d="M42.8221 26.0328C41.9913 26.6963 40.7988 27.1284 39.6474 27.3419C39.7 27.4945 39.7603 27.6675 39.8269 27.8554C39.8846 28.6407 40.0039 30.2127 40.168 32.1116C40.168 32.1116 40.168 32.1129 40.1686 32.1161C40.6174 37.3281 41.4002 43.2492 42.1579 43.8448C42.1579 43.8448 39.9135 53.0438 33.8751 53.0438C27.8366 53.0438 27.8623 44.4699 27.8623 44.4699C28.4367 44.0179 28.5483 43.6813 28.5156 41.7016C28.4912 40.2419 28.388 38.8385 28.3341 38.1865C28.3143 37.9449 28.3008 37.8064 28.3008 37.8064C26.9443 38.2359 25.5076 38.4468 24.1613 38.1814C22.8253 37.9173 21.5783 37.1852 20.5846 35.7325C19.7115 34.4567 19.414 32.8931 19.498 31.2051C19.5999 29.1421 20.2718 26.8944 21.1591 24.7628C22.1201 22.451 23.3356 20.2758 24.3523 18.6211C24.3568 18.6141 24.7799 18.4262 25.4704 18.2076C26.4974 17.8826 28.1162 17.4909 29.8266 17.5261C29.7009 20.645 29.8292 25.091 31.5825 25.0878C31.9383 25.0872 32.207 24.2781 32.3986 23.1562C32.5506 22.2664 32.6538 21.1791 32.7147 20.1431C32.657 21.1797 32.5557 22.2683 32.4057 23.1588C32.4057 23.1588 33.0647 28.0977 34.3565 27.4945C34.5719 27.3938 34.7316 27.0348 34.8438 26.4995C35.2457 27.799 35.9208 29.1536 36.976 29.0177C37.6678 28.9279 38.0082 25.2006 37.8953 21.1855C37.9274 21.14 37.9601 21.0951 37.9928 21.0509C38.1428 20.8508 38.305 20.6617 38.4794 20.4931C39.3083 19.6937 40.4103 19.359 41.7848 20.4572C42.0002 20.629 42.2227 20.8367 42.4516 21.0829C42.6984 21.3483 42.9099 21.6048 43.0888 21.8529C44.4447 23.7197 43.987 25.1032 42.8208 26.0321L42.8221 26.0328Z" fill="#94624B" stroke="black" stroke-width="0.641089" stroke-linecap="round" stroke-linejoin="round"/>
<path d="M34.457 34.7542C34.4622 37.6512 32.7626 40.4881 30.2053 41.8491C29.9059 42.0081 29.5745 42.1523 29.2392 42.1049C28.9584 42.0651 28.7238 41.9004 28.5154 41.701C28.4911 40.2412 28.3878 38.8379 28.334 38.1859C28.5641 37.9679 28.8161 37.7698 29.0668 37.5749L34.457 34.7542Z" fill="#663421"/>
<path d="M25.4903 18.8603C25.264 19.5597 24.8857 20.2284 24.6338 20.9246C23.6016 23.7717 23.1195 26.8156 23.2105 29.8428C23.2612 31.5443 23.4939 33.2406 23.9119 34.8908C24.1081 35.6678 24.3466 36.4486 24.3286 37.25C24.3216 37.5622 24.2671 37.8827 24.1613 38.1808C22.8252 37.9167 21.5783 37.1846 20.5846 35.7319C19.7115 34.4561 19.414 32.8925 19.498 31.2045C19.5999 29.1415 20.2718 26.8938 21.1591 24.7622C22.1201 22.4504 23.3356 20.2752 24.3523 18.6205C24.3568 18.6135 24.7799 18.4256 25.4704 18.207C25.5601 18.382 25.5717 18.6064 25.4903 18.8603Z" fill="#AD8679"/>
<path d="M29.1073 19.5C29.0349 21.1784 28.9637 22.8747 29.2753 24.5255C29.3747 25.0519 29.5567 25.6295 30.0292 25.8808C30.3825 26.0693 30.8146 26.0251 31.1941 26.1533C31.8557 26.377 32.2275 27.0611 32.5314 27.69C32.8353 28.3189 33.1924 29.0061 33.8463 29.251C34.0726 29.3356 34.3168 29.3587 34.5515 29.4158C35.1047 29.5504 35.6073 29.8831 35.9478 30.3396C36.0824 30.5197 36.1927 30.7198 36.3536 30.8775C36.5145 31.0352 36.744 31.1461 36.9626 31.0922C37.1761 31.0397 37.3274 30.839 37.3851 30.6274C37.4428 30.4159 37.4223 30.1909 37.3992 29.9722C37.1113 27.2534 36.4523 24.589 35.7522 21.9458C35.3426 20.3988 34.8739 18.7788 33.7309 17.6595C33.043 16.9857 32.0942 16.5318 31.1345 16.6081C30.5581 16.6542 29.542 16.9491 29.2343 17.4986C29.1221 17.6979 29.1676 17.9499 29.1638 18.1685C29.1561 18.6121 29.1266 19.0564 29.1073 19.5Z" fill="#7C412E"/>
<path d="M27.0779 51.0937C26.9234 52.2957 26.6932 53.5375 25.9854 54.5216C25.277 55.5057 23.9609 56.1519 22.8242 55.7307C21.176 55.121 20.7548 52.756 19.1264 52.0957C17.1166 51.2802 14.8401 53.617 12.8194 52.831C11.9238 52.4829 11.3513 51.5931 11.0263 50.6898C10.782 50.0122 10.6474 49.2967 10.6211 48.5774C11.0583 48.4319 11.5263 48.2896 12.0193 48.1492C15.9966 47.0157 21.5703 46.0291 24.9937 45.3053L27.0888 45.2444C27.4305 47.1702 27.3272 49.1525 27.0772 51.0937H27.0779Z" fill="#49A2A6" stroke="black" stroke-width="0.641089" stroke-linecap="round" stroke-linejoin="round"/>
<path d="M61.3922 49.6236C60.8787 51.2795 59.8292 52.7624 58.3605 53.6817C57.0533 54.4997 55.2037 54.8062 54.0524 53.7804C53.1548 52.981 52.9792 51.6668 52.4265 50.5993C51.5027 48.8152 49.3557 47.7548 47.378 48.1061C46.7568 48.2164 46.1586 48.4498 45.5316 48.5139C44.9034 48.578 44.2007 48.4325 43.8167 47.9318C43.3462 47.3176 43.525 46.4367 43.7981 45.713C43.9142 45.4046 44.0533 45.0764 44.2123 44.7385L44.8957 44.7186C49.5314 45.8989 58.5663 47.7991 61.3928 49.6236H61.3922Z" fill="#49A2A6" stroke="black" stroke-width="0.641089" stroke-linecap="round" stroke-linejoin="round"/>
<path d="M57.8292 64.8207H38.4728C38.226 63.8917 38.2189 62.8993 38.4895 61.9755C39.06 60.0279 40.8352 58.4906 42.8444 58.2053C44.9331 57.9084 46.998 58.8605 49.1072 58.9214C50.3695 58.9579 51.6344 58.6733 52.889 58.8111C54.8257 59.0233 56.6124 60.3177 57.3997 62.0986C57.7754 62.9487 57.9145 63.8949 57.8286 64.82L57.8292 64.8207Z" fill="#49A2A6" stroke="black" stroke-width="0.641089" stroke-linecap="round" stroke-linejoin="round"/>
<path d="M25.7816 64.8206H7.51562C7.89194 62.5063 10.7711 60.6792 12.8155 60.24C15.5267 59.6579 18.3513 60.3721 20.94 61.369C22.1004 61.8158 23.2512 62.3287 24.2327 63.0922C24.8449 63.5692 25.3898 64.1532 25.7816 64.8206Z" fill="#49A2A6" stroke="black" stroke-width="0.641089" stroke-linecap="round" stroke-linejoin="round"/>
<path d="M39.4868 24.9872C39.9042 24.8032 40.3606 24.7089 40.8164 24.7122C41.0491 24.7141 41.2908 24.7397 41.5082 24.6564C41.6947 24.5846 41.8428 24.4403 41.9755 24.291C42.1025 24.148 42.223 23.9935 42.282 23.8121C42.3409 23.6306 42.3281 23.4159 42.2076 23.2678C42.1044 23.1415 41.9377 23.0806 41.7755 23.071C41.6133 23.0613 41.4511 23.096 41.2921 23.1306C40.7273 23.2537 40.1593 23.3774 39.6234 23.5941C39.1316 23.7922 38.3655 24.148 38.2219 24.7218C38.163 24.9583 38.2828 25.143 38.513 25.2154C38.8541 25.3225 39.1861 25.1199 39.4868 24.9872Z" fill="#663421"/>
<path d="M43.0905 21.8535C42.9155 22.1593 42.6258 22.4144 42.2873 22.3721C42.0552 22.3426 41.8629 22.1772 41.7193 21.9919C41.5769 21.8067 41.4686 21.5957 41.316 21.4182C40.9794 21.0265 40.4281 20.8316 39.9197 20.9258C39.5703 20.9906 39.2087 21.179 38.8805 21.0438C38.6593 20.9527 38.5241 20.7328 38.4805 20.4931C39.3094 19.6936 40.4114 19.359 41.7859 20.4572C42.0013 20.629 42.2238 20.8367 42.4527 21.0829C42.6995 21.3483 42.911 21.6047 43.0899 21.8528L43.0905 21.8535Z" fill="#AD8679"/>
<path d="M30.022 14.7085C29.9823 15.1079 29.8823 16.1958 29.8284 17.5254C26.9679 17.4658 24.3651 18.6012 24.3535 18.6198C24.4728 18.4255 24.5894 18.2383 24.7023 18.0595C24.7036 18.0582 24.7042 18.0569 24.7048 18.0556C25.6318 16.5856 26.3274 15.6387 26.3883 15.5573C26.3903 15.5547 26.3915 15.5528 26.3915 15.5522H26.3922V15.5509C26.3922 15.5509 27.2326 15.1297 28.5046 14.8816C28.961 14.7925 29.4733 14.7258 30.0214 14.7091L30.022 14.7085Z" fill="#4C70F5" stroke="black" stroke-width="0.641089" stroke-linecap="round" stroke-linejoin="round"/>
<path d="M24.702 18.0595C24.5892 18.2384 24.4725 18.4256 24.3533 18.6198C23.6038 19.8398 22.7467 21.3412 21.9633 22.9722C21.1972 21.5528 19.7246 22.3292 19.7246 22.3292C19.9362 21.806 20.1093 21.4502 20.1093 21.4502C20.7683 22.0945 22.1633 20.4155 23.0512 19.1737C23.0673 19.2051 23.0858 19.2327 23.1064 19.2577C23.3782 19.5847 24.0417 18.9141 24.7014 18.0582L24.702 18.0595Z" fill="#6D1249" stroke="black" stroke-width="0.641089" stroke-linecap="round" stroke-linejoin="round"/>
<path d="M21.161 24.7615C20.2744 26.8931 19.6025 29.1408 19.4999 31.2031C18.6319 32.5071 17.7555 33.4617 17.3337 32.8392C16.3413 31.3769 18.9633 25.3167 18.9633 25.3167C18.9627 25.5475 18.989 25.759 19.0512 25.9411C19.3006 26.6751 20.2955 25.7622 21.161 24.7621V24.7615Z" fill="#6D1249" stroke="black" stroke-width="0.641089" stroke-linecap="round" stroke-linejoin="round"/>
<path d="M28.3008 37.8058C31.5492 36.7768 34.3392 34.4913 34.3392 34.4913" stroke="black" stroke-width="0.641089" stroke-linecap="round" stroke-linejoin="round"/>
<path d="M39.6473 27.3419C39.1722 27.431 38.7049 27.4817 38.2715 27.4964" stroke="black" stroke-width="0.641089" stroke-linecap="round" stroke-linejoin="round"/>
<path d="M36.6074 23.9531C36.6074 23.9531 37.0376 22.4017 37.896 21.1862" stroke="black" stroke-width="0.641089" stroke-linecap="round" stroke-linejoin="round"/>
<path d="M38.291 24.648C38.291 24.648 40.4547 22.1401 42.385 23.6268" stroke="black" stroke-width="0.641089" stroke-linecap="round" stroke-linejoin="round"/>
<path d="M40.5533 25.0872C40.5533 25.0872 40.5437 24.0492 40.2109 23.4171" stroke="black" stroke-width="0.641089" stroke-linecap="round" stroke-linejoin="round"/>
<path d="M44.8945 44.7186C44.8945 44.7186 42.1571 56.0524 33.637 56.0524C25.7548 56.0524 24.8477 45.3045 24.8477 45.3045C26.4568 44.9641 27.5909 44.6821 27.8621 44.4686C27.8621 44.4686 27.8364 53.0425 33.8748 53.0425C39.9133 53.0425 42.1577 43.8435 42.1577 43.8435C42.4174 44.0467 43.4393 44.3461 44.8952 44.7179L44.8945 44.7186Z" fill="#F5D256" stroke="black" stroke-width="0.641089" stroke-linecap="round" stroke-linejoin="round"/>
<path d="M32.7154 20.143C32.6544 21.179 32.5506 22.2663 32.3993 23.1562C32.2076 24.2774 31.939 25.0871 31.5832 25.0878C30.3228 25.0897 29.9023 22.7933 29.8125 20.3437C29.8125 20.3437 30.9004 19.1417 32.7154 20.1437V20.143Z" fill="#F5D256" stroke="black" stroke-width="0.641089" stroke-linecap="round" stroke-linejoin="round"/>
<path d="M32.7813 18.1089C32.7806 18.6032 32.7653 19.177 32.7358 19.779C32.7338 19.8187 32.7319 19.8591 32.73 19.8995C32.73 19.9027 32.7294 19.9059 32.7294 19.9097C32.7294 19.9187 32.7287 19.9277 32.7281 19.936C32.7249 20.0046 32.721 20.0732 32.7165 20.1425C30.901 19.1411 29.8137 20.3425 29.8137 20.3425C29.7784 19.384 29.7938 18.4019 29.8291 17.5249C29.8829 16.1953 29.9829 15.1073 30.0227 14.7079C29.4739 14.7246 28.9623 14.7913 28.5059 14.8804C28.5059 14.8804 28.6251 14.1104 29.1591 13.5822C29.229 13.5123 29.3059 13.4476 29.3906 13.3892C29.4072 13.3764 29.4245 13.3655 29.4419 13.3546C29.4431 13.354 29.4438 13.3533 29.4451 13.3527C29.4662 13.3386 29.4874 13.3264 29.5098 13.3142C29.5246 13.3065 29.5393 13.2982 29.5534 13.2905C29.5675 13.2834 29.5816 13.2757 29.5964 13.2687C29.8528 13.1411 30.1688 13.0725 30.5541 13.102C31.651 13.1886 32.1819 13.9726 32.4588 14.9958H32.4595C32.6249 15.6055 32.7005 16.2998 32.7512 16.9812C32.7723 17.2633 32.7832 17.6525 32.7813 18.1089Z" fill="#6D1249" stroke="black" stroke-width="0.641089" stroke-linecap="round" stroke-linejoin="round"/>
<path d="M30.0382 14.5444C30.0382 14.5444 30.0324 14.6021 30.0215 14.7086" stroke="black" stroke-width="0.641089" stroke-linecap="round" stroke-linejoin="round"/>
<path d="M34.8444 26.4995C34.7315 27.0348 34.5725 27.3938 34.3571 27.4945C33.066 28.0971 32.4063 23.1588 32.4063 23.1588C32.5563 22.2683 32.6576 21.1797 32.7153 20.1431C32.7191 20.0739 32.723 20.0053 32.7268 19.9367C32.7275 19.9283 32.7281 19.9194 32.7281 19.9104C32.7281 19.9072 32.7288 19.904 32.7288 19.9001C32.7307 19.8597 32.7326 19.8193 32.7345 19.7796C32.7621 19.1789 32.7762 18.6058 32.7762 18.1115C32.7768 17.8582 32.7736 17.6255 32.7659 17.4197C32.7608 17.2556 32.7531 17.1095 32.7435 16.9838C32.6909 16.3023 32.614 15.608 32.448 14.999H32.4473C32.1672 13.9771 31.6357 13.193 30.5375 13.1091C30.2663 13.0879 30.0298 13.1167 29.824 13.1802C29.7432 13.2046 29.6669 13.2347 29.5951 13.2693C29.5804 13.2764 29.5656 13.2841 29.5522 13.2911C29.5374 13.2988 29.5227 13.3072 29.5086 13.3148C29.4861 13.327 29.465 13.3392 29.4438 13.3533C29.4425 13.354 29.4419 13.3546 29.4406 13.3552C29.4233 13.3661 29.406 13.377 29.3893 13.3899C29.3047 13.4469 29.2271 13.511 29.1566 13.5796C29.1521 13.5841 29.1483 13.5879 29.1438 13.5924C29.1438 13.5886 29.1419 13.57 29.1399 13.5399C29.1316 13.3751 29.1239 12.8571 29.3297 12.3308C29.5291 11.8217 29.9266 11.3082 30.7125 11.0986C30.9427 11.0371 31.2068 11.0018 31.5088 11.0005C31.9883 10.9986 32.4044 11.1287 32.7621 11.3512C33.6218 11.8852 34.1526 12.9546 34.4437 14.0245V14.0258C34.5642 14.4669 34.6431 14.9086 34.6886 15.3125C34.8553 16.8043 35.4098 23.8383 34.845 26.4989L34.8444 26.4995Z" fill="#6D1249" stroke="black" stroke-width="0.641089" stroke-linecap="round" stroke-linejoin="round"/>
<path d="M24.7051 18.0557C25.5193 16.9985 26.3277 15.6587 26.3886 15.5574" stroke="black" stroke-width="0.641089" stroke-linecap="round" stroke-linejoin="round"/>
<path d="M29.1406 13.5399C29.149 13.5598 29.1554 13.5733 29.1573 13.5797" stroke="black" stroke-width="0.641089" stroke-linecap="round" stroke-linejoin="round"/>
<path d="M29.8271 17.5254C29.881 16.1958 29.981 15.1079 30.0207 14.7085C29.4719 14.7252 28.9604 14.7918 28.5039 14.8809" stroke="black" stroke-width="0.641089" stroke-linecap="round" stroke-linejoin="round"/>
<path d="M36.978 29.0177C35.9227 29.1536 35.2477 27.7983 34.8457 26.4995C35.0823 25.384 35.122 23.4998 35.0765 21.5772C35.0765 21.5772 36.192 19.8264 37.8915 20.979C37.8934 21.0483 37.8954 21.1169 37.8973 21.1861C38.0101 25.2006 37.6697 28.9286 36.978 29.0183V29.0177Z" fill="#F5D256" stroke="black" stroke-width="0.641089" stroke-linecap="round" stroke-linejoin="round"/>
<path d="M37.8904 20.9791C37.1801 20.497 36.5711 20.5226 36.1044 20.7162C35.453 20.9842 35.0754 21.5772 35.0754 21.5772C35.0126 18.9148 34.785 16.1786 34.6882 15.3125C34.5747 14.2957 34.2439 13.0398 33.5932 12.1468C33.5894 12.1404 33.5849 12.134 33.5798 12.1282C33.5438 12.0788 33.5067 12.032 33.4688 11.9859C33.2631 11.7333 33.0284 11.5159 32.7617 11.3512C32.7617 11.3512 33.3855 10.6178 34.3074 10.6338C34.3824 10.6344 34.46 10.6402 34.5395 10.653C35.0209 10.7255 35.5697 11.0127 36.1454 11.6961C36.2935 11.8717 36.4313 12.1025 36.5595 12.3795C36.6467 12.5667 36.7288 12.7744 36.8064 13.0007C37.4199 14.7823 37.7648 17.7166 37.877 20.5899C37.8821 20.7201 37.8872 20.8502 37.8911 20.9791H37.8904Z" fill="#6D1249" stroke="black" stroke-width="0.641089" stroke-linecap="round" stroke-linejoin="round"/>
<path d="M29.1576 13.5821C28.6236 14.111 28.5043 14.881 28.5043 14.881C27.2324 15.1291 26.3919 15.5503 26.3919 15.5503C26.3919 15.5503 26.3919 15.5509 26.3913 15.5515C26.3913 15.5522 26.39 15.5541 26.3881 15.5567C26.3464 15.6131 26.0047 16.0779 25.4938 16.8401C24.8584 15.2432 23.7814 15.8413 23.75 15.8593C24.0423 15.1983 24.3956 14.5303 24.7738 13.9437C25.3668 13.0237 26.0227 12.3019 26.6028 12.1147C27.3388 11.8762 27.9036 12.0839 28.3114 12.4128C28.8056 12.8096 29.0717 13.3802 29.139 13.5404C29.1409 13.5706 29.1428 13.5892 29.1428 13.593C29.1467 13.5892 29.1505 13.5853 29.1557 13.5808C29.1563 13.5815 29.1569 13.5821 29.1569 13.5828L29.1576 13.5821Z" fill="#6D1249" stroke="black" stroke-width="0.641089" stroke-linecap="round" stroke-linejoin="round"/>
<path d="M29.3289 12.3307C29.1231 12.8571 29.1308 13.3751 29.1391 13.5398C29.016 13.2475 28.232 11.5858 26.603 12.1147C24.865 12.6776 22.4513 18.0198 23.0513 19.1744C22.1634 20.4162 20.7684 22.0945 20.1094 21.4509C19.4253 20.7841 20.6017 16.8626 22.3833 13.97C23.2321 12.5917 24.2181 11.4473 25.206 11.0005C26.176 10.562 26.9434 10.5306 27.5402 10.6947C28.8115 11.0434 29.3084 12.2762 29.3295 12.3301L29.3289 12.3307Z" fill="#6D1249" stroke="black" stroke-width="0.641089" stroke-linecap="round" stroke-linejoin="round"/>
<path d="M34.5383 10.6524C33.4901 10.4934 32.7605 11.3505 32.7605 11.3505C32.4021 11.1274 31.9867 10.9979 31.5072 10.9999C30.1756 11.0056 29.5865 11.673 29.3281 12.3295C29.3281 12.2891 29.3358 9.96386 31.1129 9.55677C33.2869 9.05993 34.5383 10.6518 34.5383 10.6518V10.6524Z" fill="#6D1249" stroke="black" stroke-width="0.641089" stroke-linecap="round" stroke-linejoin="round"/>
<path d="M29.3301 12.3301L29.3307 12.332" stroke="black" stroke-width="0.641089" stroke-linecap="round" stroke-linejoin="round"/>
<path d="M43.5464 36.2402C43.5003 37.5538 43.2612 38.6007 42.6207 38.6116C40.9154 38.6391 40.1916 32.3141 40.1698 32.116C40.1692 32.1128 40.1692 32.1115 40.1692 32.1115C40.0051 30.2126 39.8858 28.6407 39.8281 27.8553C40.5038 29.7369 41.879 33.0604 42.8502 32.0615C43.0054 31.9019 43.1015 31.5294 43.1458 30.9928C43.1458 30.9928 43.6247 34.004 43.5464 36.2402Z" fill="#6D1249" stroke="black" stroke-width="0.641089" stroke-linecap="round" stroke-linejoin="round"/>
<path d="M45.8788 40.033C44.2107 39.9701 43.5452 36.2396 43.5452 36.2396C43.6234 34.0035 43.1445 30.9923 43.1445 30.9923C43.1836 30.5185 43.1824 29.9178 43.1458 29.2229C43.8876 30.7461 45.0383 32.8092 45.9724 33.1573C45.9923 33.2451 47.536 40.0945 45.8781 40.033H45.8788Z" fill="#6D1249" stroke="black" stroke-width="0.641089" stroke-linecap="round" stroke-linejoin="round"/>
<path d="M25.275 24.8263C25.275 24.8263 23.3292 27.8266 24.1178 28.3189C24.9057 28.8113 25.768 27.999 25.768 27.999" stroke="black" stroke-width="0.641089" stroke-linecap="round" stroke-linejoin="round"/>
<path d="M25.9149 30.9538C25.9149 30.9538 28.5863 31.8648 30.0211 29.8704C30.0211 29.8704 30.8314 32.8501 28.6485 33.2329C25.4963 33.7855 25.9149 30.9538 25.9149 30.9538Z" fill="white" stroke="black" stroke-width="0.641089" stroke-linecap="round" stroke-linejoin="round"/>
<path d="M25.8789 49.664C26.4315 49.2915 26.9835 48.9197 27.5361 48.5472" stroke="black" stroke-width="0.641089" stroke-linecap="round" stroke-linejoin="round"/>
<path d="M28.6973 54.1491C29.0165 53.8202 29.3358 53.4913 29.6544 53.1631" stroke="black" stroke-width="0.641089" stroke-linecap="round" stroke-linejoin="round"/>
<path d="M34.0801 55.7044L34.3397 54.1279" stroke="black" stroke-width="0.641089" stroke-linecap="round" stroke-linejoin="round"/>
<path d="M39.2319 53.8849C38.9825 53.5458 38.7338 53.2073 38.4844 52.8682" stroke="black" stroke-width="0.641089" stroke-linecap="round" stroke-linejoin="round"/>
<path d="M42.3774 50.0146C41.9684 49.8063 41.5594 49.5979 41.1504 49.3889" stroke="black" stroke-width="0.641089" stroke-linecap="round" stroke-linejoin="round"/>
<path d="M44.3763 45.752C43.8173 45.7033 43.2582 45.6546 42.6992 45.6058" stroke="black" stroke-width="0.641089" stroke-linecap="round" stroke-linejoin="round"/>
<path d="M32.5527 24.0524C32.5527 24.0524 33.3862 22.3124 35.085 23.9017" stroke="black" stroke-width="0.641089" stroke-linecap="round" stroke-linejoin="round"/>
<path d="M32.7559 25.0038C33.0892 24.5967 33.8425 24.037 35.0247 25.0942" stroke="#F5D256" stroke-width="0.641089" stroke-linecap="round" stroke-linejoin="round"/>
<path d="M37.9938 21.0516C37.9592 21.0259 37.9246 21.0016 37.8906 20.9791" stroke="black" stroke-width="0.641089" stroke-linecap="round" stroke-linejoin="round"/>
<path d="M21.9638 22.9721C21.6837 23.5542 21.4131 24.1537 21.1606 24.7614C20.2951 25.7615 19.3001 26.6751 19.0507 25.9404C18.9892 25.759 18.9623 25.5474 18.9629 25.316C18.9635 24.3902 19.3918 23.1516 19.7252 22.3285C19.7252 22.3285 21.1977 21.5515 21.9638 22.9715V22.9721Z" fill="#F5D256" stroke="black" stroke-width="0.641089" stroke-linecap="round" stroke-linejoin="round"/>
<path d="M25.4944 16.8402C25.4944 16.8402 25.4944 16.8408 25.4938 16.8408C25.2617 17.1877 24.995 17.596 24.7052 18.0551C24.7046 18.0563 24.7039 18.0576 24.7027 18.0589C24.043 18.9148 23.3795 19.5853 23.1076 19.2584C23.0871 19.2334 23.0685 19.2052 23.0525 19.1744C22.7807 18.6513 23.1281 17.2684 23.75 15.8593H23.7506C23.7821 15.8414 24.8591 15.2432 25.4944 16.8402Z" fill="#F5D256" stroke="black" stroke-width="0.641089" stroke-linecap="round" stroke-linejoin="round"/>
<path d="M25.4949 16.8402L25.4941 16.841C25.4941 16.841 25.4944 16.8407 25.4949 16.8402Z" fill="#F5D256" stroke="black" stroke-width="0.641089" stroke-linecap="round" stroke-linejoin="round"/>
<path d="M20.373 18.4115C20.373 18.4115 21.8117 17.5063 22.79 19.5328" stroke="black" stroke-width="0.641089" stroke-linecap="round" stroke-linejoin="round"/>
<path d="M17.6641 28.8985C17.6641 28.8985 19.154 28.1151 19.6777 29.6268" stroke="#F5D256" stroke-width="0.641089" stroke-linecap="round" stroke-linejoin="round"/>
<path d="M40.6875 35.1323C40.6862 35.1272 41.6626 33.6078 43.5455 34.8874L40.6875 35.1323Z" fill="#6D1249"/>
<path d="M40.6875 35.1323C40.6862 35.1272 41.6626 33.6078 43.5455 34.8874" stroke="black" stroke-width="0.641089" stroke-linecap="round" stroke-linejoin="round"/>
<path d="M40.5703 33.9143C40.569 33.9092 41.5454 32.3898 43.4283 33.6694L40.5703 33.9143Z" fill="#6D1249"/>
<path d="M40.5703 33.9143C40.569 33.9092 41.5454 32.3898 43.4283 33.6694" stroke="black" stroke-width="0.641089" stroke-linecap="round" stroke-linejoin="round"/>
<path d="M33.6694 11.8865L33.5797 12.1288C33.5438 12.0794 33.5066 12.0326 33.4688 11.9865C33.5309 11.9461 33.5982 11.9121 33.6688 11.8871L33.6694 11.8865Z" fill="#450832"/>
<path d="M36.1049 20.7162C35.4536 20.9842 35.0759 21.5772 35.0759 21.5772C35.0131 18.9148 34.7855 16.1786 34.6887 15.3125C34.5753 14.2957 34.2445 13.0398 33.5938 12.1468C33.7733 11.9692 34.0912 11.9775 34.3092 12.1141C34.5419 12.2602 34.6855 12.5122 34.8048 12.7597C35.5484 14.2976 35.7414 16.0356 35.9235 17.7352C36.0299 18.7256 36.1357 19.7238 36.1043 20.7162H36.1049Z" fill="#450832"/>
<path d="M42.8215 26.0328C41.9906 26.6963 40.7982 27.1284 39.6468 27.3419C39.6994 27.4945 39.7596 27.6676 39.8263 27.8554C39.884 28.6408 40.0032 30.2127 40.1674 32.1116C40.1674 32.1116 40.1674 32.1129 40.168 32.1161C40.6168 37.3282 41.3995 43.2493 42.1573 43.8449C42.1573 43.8449 39.9129 53.0439 33.8744 53.0439C27.836 53.0439 27.8616 44.4699 27.8616 44.4699C29.0169 43.5621 28.3002 37.8058 28.3002 37.8058C25.5986 38.6623 22.5804 38.6488 20.5846 35.7319C19.7115 34.4561 19.414 32.8925 19.498 31.2045C19.5999 29.1415 20.2718 26.8938 21.1591 24.7622C22.1201 22.4504 23.3356 20.2752 24.3523 18.6205C24.3639 18.6019 26.966 17.4666 29.8272 17.5262C29.7016 20.6451 29.8298 25.0911 31.5832 25.0878C31.939 25.0872 32.2076 24.2782 32.3993 23.1562C32.5512 22.2664 32.6544 21.1791 32.7153 20.1431C32.6576 21.1798 32.5563 22.2683 32.4063 23.1588C32.4063 23.1588 33.0654 28.0978 34.3572 27.4945C34.5726 27.3938 34.7322 27.0348 34.8444 26.4995C35.2464 27.799 35.9214 29.1536 36.9767 29.0177C37.6684 28.928 38.0088 25.2007 37.896 21.1855C37.928 21.14 37.9607 21.0951 37.9934 21.0509C38.857 19.8982 40.1218 19.1276 41.7861 20.4573C42.0015 20.6291 42.224 20.8368 42.4528 21.083C44.555 23.3447 44.1434 24.9795 42.8221 26.0322L42.8215 26.0328Z" stroke="black" stroke-width="0.641089" stroke-linecap="round" stroke-linejoin="round"/>
<path d="M35.0708 10.0818L34.9746 10.0844C35.0067 10.0818 35.0381 10.0805 35.0708 10.0818Z" fill="#961E6C"/>
<path d="M36.8052 13.0007C36.7776 13.2084 36.7391 13.4142 36.6917 13.6181C36.6468 13.8098 36.5577 14.0342 36.3641 14.0669C36.2237 14.0906 36.0865 13.9944 36.0121 13.8732C35.9378 13.7521 35.9121 13.6085 35.8788 13.47C35.7269 12.8385 35.3871 12.2539 34.9146 11.8083C34.6902 11.5974 34.4267 11.4025 34.3209 11.1134C34.2645 10.9601 34.2613 10.7896 34.3068 10.6332C34.3818 10.6338 34.4594 10.6396 34.5389 10.6524C35.0204 10.7249 35.5691 11.0121 36.1448 11.6955C36.2929 11.8711 36.4308 12.1019 36.559 12.3789C36.6462 12.5661 36.7282 12.7738 36.8058 13.0001L36.8052 13.0007Z" fill="#961E6C"/>
<path d="M34.8444 26.4995C34.7315 27.0348 34.5725 27.3939 34.3571 27.4945C33.066 28.0971 32.4063 23.1588 32.4063 23.1588C32.5563 22.2683 32.6576 21.1798 32.7153 20.1431C32.7191 20.0739 32.723 20.0053 32.7268 19.9367C32.7275 19.9284 32.7281 19.9194 32.7281 19.9104C32.7281 19.9072 32.7288 19.904 32.7288 19.9002C32.7307 19.8598 32.7326 19.8194 32.7345 19.7796C32.7621 19.1789 32.7762 18.6058 32.7762 18.1115C32.7775 17.6551 32.7653 17.2659 32.7435 16.9838C32.6909 16.3024 32.614 15.6081 32.448 14.999H32.4473C32.1672 13.9771 31.6357 13.1931 30.5375 13.1091C30.1593 13.0796 29.849 13.1469 29.5951 13.2687C29.5804 13.2758 29.5656 13.2835 29.5522 13.2905C29.5374 13.2982 29.5227 13.3065 29.5086 13.3142C29.4861 13.3264 29.465 13.3386 29.4438 13.3527C29.4425 13.3533 29.4419 13.354 29.4406 13.3546C29.4233 13.3655 29.406 13.3764 29.3893 13.3892C29.3047 13.4463 29.2271 13.5104 29.1566 13.579C29.1521 13.5835 29.1483 13.5873 29.1438 13.5918C29.1438 13.588 29.1419 13.5694 29.1399 13.5393C29.1316 13.3745 29.1239 12.8565 29.3297 12.3302C29.5874 11.673 30.1766 11.005 31.5088 10.9999C31.9883 10.998 32.4044 11.1281 32.7621 11.3506C33.977 12.1045 34.5334 13.9297 34.6879 15.3125C34.8546 16.8043 35.4092 23.8384 34.8444 26.4989V26.4995Z" stroke="black" stroke-width="0.641089" stroke-linecap="round" stroke-linejoin="round"/>
<path d="M21.161 24.7615C20.2744 26.8931 19.6025 29.1408 19.4999 31.2031C18.6319 32.5071 17.7555 33.4617 17.3337 32.8392C16.3413 31.3769 18.9633 25.3167 18.9633 25.3167C18.9627 25.5475 18.989 25.759 19.0512 25.9411C19.3006 26.6751 20.2955 25.7622 21.161 24.7621V24.7615Z" stroke="black" stroke-width="0.641089" stroke-linecap="round" stroke-linejoin="round"/>
<path d="M43.5449 36.2402C43.5449 36.2402 44.9964 34.6413 46.4548 35.8434" stroke="#F5D256" stroke-width="0.641089" stroke-linecap="round" stroke-linejoin="round"/>
<path d="M34.4438 14.0245V14.0258C34.4438 14.1777 34.4297 14.331 34.4021 14.4816C34.3887 14.5521 34.3669 14.6304 34.3034 14.6637C34.2271 14.7041 34.1342 14.6573 34.0649 14.6054C33.6296 14.2855 33.3758 13.7841 33.0975 13.3219C32.818 12.8597 32.4635 12.393 31.9474 12.2346C31.7435 12.1724 31.5275 12.1622 31.3185 12.1205C31.1095 12.0788 30.896 11.9955 30.7665 11.8269C30.6242 11.6397 30.612 11.3743 30.6915 11.1531C30.6979 11.1345 30.7056 11.1165 30.7133 11.0986C30.9435 11.0371 31.2076 11.0018 31.5095 11.0005C31.9891 10.9986 32.4051 11.1287 32.7629 11.3512C33.6226 11.8852 34.1534 12.9546 34.4444 14.0245H34.4438Z" fill="#961E6C"/>
<path d="M27.5397 10.6947C27.5211 10.7171 27.5013 10.7383 27.4808 10.7581C27.3025 10.9287 27.0647 11.0197 26.8377 11.1184C25.5299 11.689 24.401 12.6647 23.647 13.8758C23.5169 14.0848 23.3739 14.3194 23.1355 14.3809C22.8181 14.4636 22.5649 14.2335 22.3828 13.97C23.2316 12.5917 24.2176 11.4473 25.2055 11.0005C26.1755 10.562 26.9429 10.5306 27.5397 10.6947Z" fill="#961E6C"/>
<path d="M28.3116 12.4121C28.193 12.7493 27.8244 12.9782 27.4692 13.0949C27.0564 13.2314 26.5999 13.2955 26.2691 13.5783C25.9921 13.8155 25.8043 14.2046 25.4453 14.2726C25.1831 14.3232 24.9279 14.1674 24.7734 13.9437C25.3664 13.0237 26.0223 12.3019 26.6025 12.1147C27.3384 11.8762 27.9032 12.0839 28.311 12.4128L28.3116 12.4121Z" fill="#961E6C"/>
<path d="M45.8788 40.033C44.2107 39.9701 43.5452 36.2396 43.5452 36.2396C43.6234 34.0035 43.1445 30.9923 43.1445 30.9923C43.1836 30.5185 43.1824 29.9178 43.1458 29.2229C43.8876 30.7461 45.0383 32.8092 45.9724 33.1573C45.9923 33.2451 47.536 40.0945 45.8781 40.033H45.8788Z" stroke="black" stroke-width="0.641089" stroke-linecap="round" stroke-linejoin="round"/>
<path d="M39.4773 26.5066C39.8218 26.5066 40.1011 26.2273 40.1011 25.8828C40.1011 25.5383 39.8218 25.259 39.4773 25.259C39.1328 25.259 38.8535 25.5383 38.8535 25.8828C38.8535 26.2273 39.1328 26.5066 39.4773 26.5066Z" fill="#4C70F5" stroke="black" stroke-width="0.641089" stroke-linecap="round" stroke-linejoin="round"/>
<path d="M40.6221 29.9177C41.2958 29.7482 41.6587 28.8827 41.4327 27.9844C41.2068 27.0862 40.4775 26.4954 39.8038 26.6648C39.1301 26.8343 38.7672 27.6999 38.9931 28.5981C39.2191 29.4963 39.9484 30.0871 40.6221 29.9177Z" fill="#4C70F5" stroke="black" stroke-width="0.641089" stroke-linecap="round" stroke-linejoin="round"/>
<path d="M33.4406 17.1049C33.4182 17.2325 33.3893 17.362 33.313 17.4665C33.2367 17.5697 33.1002 17.6396 32.9771 17.6004C32.8867 17.5722 32.8239 17.4934 32.7662 17.4197C32.761 17.2555 32.7534 17.1094 32.7437 16.9837C32.6912 16.3022 32.6142 15.6079 32.4482 14.9989H32.4476C32.1674 13.977 31.6359 13.193 30.5378 13.109C30.2666 13.0878 30.03 13.1167 29.8242 13.1801C29.846 13.0699 29.8941 12.9641 29.9627 12.875L29.8967 12.8827C30.2961 12.491 30.9109 12.3595 31.4558 12.4858C32.0001 12.6134 32.4732 12.9763 32.7995 13.4302C33.1258 13.8847 33.3162 14.4251 33.4233 14.9745C33.5592 15.6759 33.565 16.4016 33.4406 17.1042V17.1049Z" fill="#450832"/>
<path d="M27.6163 11.6878C27.2118 11.5365 26.7553 11.5608 26.345 11.6948C25.9341 11.8288 25.5642 12.0654 25.2251 12.3327C24.1307 13.1962 23.3191 14.4111 22.9396 15.7523C22.8966 15.9036 22.8646 16.0831 22.9646 16.2049C23.0729 16.3369 23.2903 16.3235 23.4294 16.2235C23.5678 16.1235 23.6473 15.9638 23.7243 15.8113C24.1865 14.8913 24.7327 14.0143 25.3533 13.193C25.5975 12.8706 25.8565 12.5532 26.1777 12.3071C26.4919 12.0673 26.8784 11.8936 27.2798 11.898C27.499 11.9 27.6779 11.9692 27.876 12.0506C27.9696 12.0891 28.1016 12.159 28.1952 12.1077C28.1036 11.9102 27.8131 11.7608 27.6163 11.6878Z" fill="#450832"/>
<path d="M29.1576 13.5821C28.6236 14.111 28.5043 14.881 28.5043 14.881C27.2324 15.1291 26.3919 15.5503 26.3919 15.5503C26.3919 15.5503 26.3919 15.5509 26.3913 15.5516C26.3913 15.5522 26.39 15.5541 26.3881 15.5567C26.3464 15.6131 26.0047 16.0779 25.4938 16.8401C24.8584 15.2432 23.7814 15.8413 23.75 15.8593C24.5007 14.1591 25.6528 12.4224 26.6035 12.1147C28.2325 11.5858 29.0165 13.2475 29.1396 13.5398C29.1416 13.5699 29.1435 13.5885 29.1435 13.5924C29.1473 13.5885 29.1512 13.5847 29.1563 13.5802C29.1569 13.5808 29.1576 13.5815 29.1576 13.5821Z" stroke="black" stroke-width="0.641089" stroke-linecap="round" stroke-linejoin="round"/>
<path d="M29.3288 12.3308C29.123 12.8571 29.1307 13.3751 29.1391 13.5398C29.016 13.2475 28.2319 11.5858 26.6029 12.1147C24.8649 12.6776 22.4512 18.0198 23.0513 19.1744C22.1634 20.4162 20.7683 22.0945 20.1093 21.4509C19.0996 20.4668 22.1448 12.3852 25.206 11.0005C28.2409 9.62663 29.298 12.2513 29.3295 12.3301L29.3288 12.3308Z" stroke="black" stroke-width="0.641089" stroke-linecap="round" stroke-linejoin="round"/>
<path d="M34.8444 26.4995C34.7315 27.0348 34.5725 27.3939 34.3571 27.4945C33.066 28.0971 32.4063 23.1588 32.4063 23.1588C32.5563 22.2683 32.6576 21.1798 32.7153 20.1431C32.7191 20.0739 32.723 20.0053 32.7268 19.9367C32.7275 19.9284 32.7281 19.9194 32.7281 19.9104C32.7281 19.9072 32.7288 19.904 32.7288 19.9002C32.7307 19.8598 32.7326 19.8194 32.7345 19.7796C32.7621 19.1789 32.7762 18.6058 32.7762 18.1115C32.7775 17.6551 32.7653 17.2659 32.7435 16.9838C32.6909 16.3024 32.614 15.6081 32.448 14.999H32.4473C32.1672 13.9771 31.6357 13.1931 30.5375 13.1091C30.1593 13.0796 29.849 13.1469 29.5951 13.2687C29.5804 13.2758 29.5656 13.2835 29.5522 13.2905C29.5374 13.2982 29.5227 13.3065 29.5086 13.3142C29.4861 13.3264 29.465 13.3386 29.4438 13.3527C29.4425 13.3533 29.4419 13.354 29.4406 13.3546C29.4233 13.3655 29.406 13.3764 29.3893 13.3892C29.3047 13.4463 29.2271 13.5104 29.1566 13.579C29.1521 13.5835 29.1483 13.5873 29.1438 13.5918C29.1438 13.588 29.1419 13.5694 29.1399 13.5393C29.1316 13.3745 29.1239 12.8565 29.3297 12.3302C29.5874 11.673 30.1766 11.005 31.5088 10.9999C31.9883 10.998 32.4044 11.1281 32.7621 11.3506C33.977 12.1045 34.5334 13.9297 34.6879 15.3125C34.8546 16.8043 35.4092 23.8384 34.8444 26.4989V26.4995Z" stroke="black" stroke-width="0.641089" stroke-linecap="round" stroke-linejoin="round"/>
<path d="M37.8898 20.9791C36.1903 19.8264 35.0748 21.5772 35.0748 21.5772C35.0119 18.9148 34.7844 16.1786 34.6876 15.3125C34.5331 13.9296 33.9766 12.1051 32.7617 11.3505C32.7617 11.3505 33.4913 10.4921 34.5395 10.6524C35.0209 10.7248 35.5697 11.012 36.1454 11.6954C36.2935 11.8711 36.4313 12.1019 36.5595 12.3788C37.3282 14.0341 37.75 17.3505 37.877 20.5893C37.8821 20.7194 37.8872 20.8496 37.8911 20.9784L37.8898 20.9791Z" stroke="black" stroke-width="0.641089" stroke-linecap="round" stroke-linejoin="round"/>
</g>
<defs>
<clipPath id="clip0_3288_18617">
<rect width="64" height="64" rx="32" fill="white"/>
</clipPath>
</defs>
</svg>
